<svg width="915" height="1095" xmlns="http://www.w3.org/2000/svg" xml:space="preserve" enable-background="new 0 0 1400 1400" version="1.1">

 <g>
  <title>Layer 1</title>
  <g id="svg_1">
   <g id="svg_2">
    <g id="svg_3">
     <polygon id="svg_4" points="907.800048828125,718.5999755859375 853.5,750.2000122070312 798.800048828125,718.5999755859375 853.0999755859375,687 " fill="#77D9DC"/>
    </g>
    <g id="svg_5">
     <polygon id="svg_6" points="907.800048828125,718.5999755859375 907.300048828125,750.5999755859375 852.9000244140625,782.2000122070312 853.5,750.2000122070312 " fill="#4EAFAC"/>
    </g>
    <g id="svg_7">
     <polygon id="svg_8" points="853.5,750.2000122070312 852.9000244140625,782.2000122070312 798.199951171875,750.5999755859375 798.800048828125,718.5999755859375 " fill="#58BFBF"/>
    </g>
   </g>
   <g id="svg_9">
    <g id="svg_10">
     <polygon id="svg_11" points="159.89999389648438,632.7000122070312 105.60000610351562,664.2999877929688 50.899993896484375,632.7000122070312 105.29998779296875,601.0999755859375 " fill="#FA6B5C"/>
    </g>
    <g id="svg_12">
     <polygon id="svg_13" points="159.89999389648438,632.7000122070312 159.39999389648438,727.0999755859375 105.10000610351562,758.7000122070312 105.60000610351562,664.2999877929688 " fill="#D75D4C"/>
    </g>
    <g id="svg_14">
     <polygon id="svg_15" points="105.60000610351562,664.2999877929688 105.10000610351562,758.7000122070312 50.399993896484375,727.0999755859375 50.899993896484375,632.7000122070312 " fill="#BB5140"/>
    </g>
   </g>
   <g id="svg_16">
    <g id="svg_17">
     <polygon id="svg_18" points="165.5,941.4000244140625 84,988.699951171875 2.1000060960650444,941.4000244140625 83.5,894.0999755859375 " fill="#FEDB59"/>
    </g>
    <g id="svg_19">
     <polygon id="svg_20" points="165.5,941.4000244140625 164.70001220703125,965.0999755859375 83.20001220703125,1012.4000244140625 84,988.699951171875 " fill="#B89030"/>
    </g>
    <g id="svg_21">
     <polygon id="svg_22" points="84,988.699951171875 83.20001220703125,1012.4000244140625 1.3000029921531677,965.0999755859375 2.1000060960650444,941.4000244140625 " fill="#CBAF46"/>
    </g>
   </g>
   <g id="svg_23">
    <g id="svg_24">
     <g id="svg_25">
      <g id="svg_26" enable-background="new    ">
       <g id="svg_27">
        <polygon id="svg_28" points="411.20001220703125,970.9000244140625 321.29998779296875,1023.0999755859375 152,925.4000244140625 241.89999389648438,873.0999755859375 " fill="#F7F8F8"/>
       </g>
       <g id="svg_29">
        <polygon id="svg_30" points="411.20001220703125,970.9000244140625 411.20001220703125,981.0999755859375 321.29998779296875,1033.300048828125 321.29998779296875,1023.0999755859375 " fill="#5678B5"/>
       </g>
       <g id="svg_31">
        <polygon id="svg_32" points="321.29998779296875,1023.0999755859375 321.29998779296875,1033.300048828125 152,935.5999755859375 152,925.4000244140625 " fill="#91B9FF"/>
       </g>
      </g>
     </g>
     <g id="svg_33">
      <g id="svg_34">
       <polygon id="svg_35" points="347.9000244140625,954.5 344.4000244140625,956.5 230.10000610351562,890.5 233.70001220703125,888.5 " fill="#91B9FF"/>
      </g>
      <g id="svg_36" enable-background="new    ">
       <g id="svg_37">
        <polygon id="svg_38" points="294.29998779296875,946.4000244140625 290.79998779296875,948.4000244140625 210.39999389648438,902 213.89999389648438,900 " fill="#91B9FF"/>
       </g>
       <g id="svg_39">
        <polygon id="svg_40" points="355,950.300048828125 351.5,952.4000244140625 237.20001220703125,886.4000244140625 240.70001220703125,884.4000244140625 " fill="#91B9FF"/>
       </g>
       <g id="svg_41">
        <polygon id="svg_42" points="287.29998779296875,950.5 283.79998779296875,952.5 203.39999389648438,906.0999755859375 206.89999389648438,904 " fill="#91B9FF"/>
       </g>
       <g id="svg_43">
        <polygon id="svg_44" points="340.79998779296875,958.5999755859375 337.29998779296875,960.5999755859375 223,894.699951171875 226.60000610351562,892.5999755859375 " fill="#91B9FF"/>
       </g>
      </g>
     </g>
    </g>
    <g id="svg_45">
     <g id="svg_46" enable-background="new    ">
      <g id="svg_47">
       <polygon id="svg_48" points="472.4000244140625,114.19999694824219 472.5,176.5 247.89999389648438,306.29998779296875 247.70001220703125,244 " fill="#F7F8F8"/>
      </g>
      <g id="svg_49">
       <polygon id="svg_50" points="247.89999389648438,306.29998779296875 241.10000610351562,302.3999938964844 240.89999389648438,240.10000610351562 247.70001220703125,244 " fill="#FA6B5C"/>
      </g>
      <g id="svg_51">
       <polygon id="svg_52" points="247.70001220703125,244 240.89999389648438,240.10000610351562 465.5999755859375,110.19999694824219 472.4000244140625,114.19999694824219 " fill="#FA6B5C"/>
      </g>
     </g>
    </g>
    <g id="svg_53">
     <g id="svg_54">
      <polygon id="svg_55" points="454.5999755859375,158.79998779296875 454.5999755859375,164.20001220703125 265.70001220703125,273.20001220703125 265.70001220703125,267.79998779296875 " fill="#FA6B5C"/>
     </g>
     <g id="svg_56">
      <polygon id="svg_57" points="454.5999755859375,171.79998779296875 454.5999755859375,177.20001220703125 265.79998779296875,286.20001220703125 265.79998779296875,280.79998779296875 " fill="#FA6B5C"/>
     </g>
     <g id="svg_58">
      <polygon id="svg_59" points="454.5,136.39999389648438 454.5,145.79998779296875 265.70001220703125,254.79998779296875 265.70001220703125,245.39999389648438 " fill="#FA6B5C"/>
     </g>
    </g>
    <g id="svg_60">
     <g id="svg_61" enable-background="new    ">
      <g id="svg_62">
       <polygon id="svg_63" points="472.4000244140625,22.5 472.5,84.80000305175781 247.89999389648438,214.70001220703125 247.70001220703125,152.39999389648438 " fill="#F7F8F8"/>
      </g>
      <g id="svg_64">
       <polygon id="svg_65" points="247.89999389648438,214.70001220703125 241.10000610351562,210.70001220703125 240.89999389648438,148.39999389648438 247.70001220703125,152.39999389648438 " fill="#FA6B5C"/>
      </g>
      <g id="svg_66">
       <polygon id="svg_67" points="247.70001220703125,152.39999389648438 240.89999389648438,148.39999389648438 465.5999755859375,18.600006103515625 472.4000244140625,22.5 " fill="#FA6B5C"/>
      </g>
     </g>
    </g>
    <g id="svg_68">
     <g id="svg_69">
      <polygon id="svg_70" points="454.5999755859375,67.10000610351562 454.5999755859375,72.5 265.70001220703125,181.5 265.70001220703125,176.10000610351562 " fill="#FA6B5C"/>
     </g>
     <g id="svg_71">
      <polygon id="svg_72" points="454.5999755859375,80.19999694824219 454.5999755859375,85.60000610351562 265.79998779296875,194.60000610351562 265.79998779296875,189.20001220703125 " fill="#FA6B5C"/>
     </g>
     <g id="svg_73">
      <polygon id="svg_74" points="454.5,44.69999694824219 454.5,54.100006103515625 265.70001220703125,163.10000610351562 265.70001220703125,153.79998779296875 " fill="#FA6B5C"/>
     </g>
    </g>
    <path id="svg_75" d="m179.7,458.6c0,0 -6.8,-0.7 -11.8,-2.5c-5,-1.8 -10.3,-1.4 -11.4,0c-1.1,1.4 5,11.1 14.3,13.2c9.3,2.1 9.3,2.1 9.3,2.1l0,2.9c0,0 4,1.1 8.4,0s5.8,-5.4 5.8,-5.4l1.2,-5l-15.8,-5.3z" fill="#325863"/>
    <g id="svg_76">
     <polygon id="svg_77" points="404.9000244140625,403 404.0999755859375,688.2000122070312 319.70001220703125,639.5 320.5,354.20001220703125 " fill="#BB5140"/>
    </g>
    <g id="svg_78">
     <polygon id="svg_79" points="497.9000244140625,348.8999938964844 497.0999755859375,634.2000122070312 404.0999755859375,688.2000122070312 404.9000244140625,403 " fill="#D75D4C"/>
    </g>
    <g id="svg_80">
     <polygon id="svg_81" points="609.9000244140625,413.5999755859375 609.0999755859375,698.7999877929688 497.0999755859375,634.2000122070312 497.9000244140625,348.8999938964844 " fill="#BB5140"/>
    </g>
    <polygon id="svg_82" points="685.2000122070312,467.5999755859375 601.2999877929688,516.4000244140625 600.5,801.5999755859375 684.4000244140625,752.9000244140625 777.4000244140625,698.7999877929688 778.199951171875,413.5999755859375 " fill="#D75D4C"/>
    <polygon id="svg_83" points="357.70001220703125,540.7000122070312 356.9000244140625,826 533.7999877929688,723.2000122070312 534.5999755859375,438 " fill="#B89030"/>
    <g id="svg_84">
     <polygon id="svg_85" points="778.199951171875,413.5999755859375 685.2000122070312,467.5999755859375 601.2999877929688,516.4000244140625 516.9000244140625,467.5999755859375 609.9000244140625,413.5999755859375 497.9000244140625,348.8999938964844 404.9000244140625,403 320.5,354.20001220703125 404.4000244140625,305.5 497.4000244140625,251.5 591,305.5 684.5999755859375,359.6000061035156 " fill="#FA6B5C"/>
    </g>
    <g id="svg_86">
     <polygon id="svg_87" points="601.2999877929688,516.4000244140625 600.5,801.5999755859375 516.0999755859375,752.9000244140625 516.9000244140625,467.5999755859375 " fill="#ED1C24"/>
    </g>
    <g id="svg_88">
     <polygon id="svg_89" points="534.5999755859375,438 357.70001220703125,540.7000122070312 273.29998779296875,492 179.70001220703125,438 263.5999755859375,389.20001220703125 366.4000244140625,448.5999755859375 459.4000244140625,394.5 " fill="#FEDB59"/>
    </g>
    <polygon id="svg_90" points="273.29998779296875,492 179.70001220703125,438 178.89999389648438,723.2000122070312 272.5,777.2000122070312 356.9000244140625,826 357.70001220703125,540.7000122070312 " fill="#CBAF46"/>
    <g id="svg_91">
     <polygon id="svg_92" points="601.2999877929688,516.4000244140625 517.5,565.0999755859375 433.0999755859375,516.4000244140625 516.9000244140625,467.5999755859375 " fill="#91B9FF"/>
    </g>
    <g id="svg_93">
     <polygon id="svg_94" points="601.2999877929688,516.4000244140625 600.5,801.5999755859375 516.7000122070312,850.2999877929688 517.5,565.0999755859375 " fill="#5678B5"/>
    </g>
    <g id="svg_95">
     <polygon id="svg_96" points="517.5,565.0999755859375 516.7000122070312,850.2999877929688 432.29998779296875,801.5999755859375 433.0999755859375,516.4000244140625 " fill="#668ED6"/>
    </g>
    <g id="svg_97">
     <path id="svg_98" d="m249,669.7c0,0 3.2,-4.3 4.9,-7.7s2.7,-5.1 3.4,-4.8c0.7,0.3 0.7,2.4 0.7,2.4s2.2,-1.9 3.4,-3.3c1.2,-1.4 2.4,-2.8 2.4,-2.8s1.9,-0.5 3.9,3.9c2,4.4 1,9.1 0,10c-1,0.9 -10.2,8.7 -15.5,8.9c-5.3,0.2 -3.2,-6.6 -3.2,-6.6z" fill="#F0C7AD"/>
     <path id="svg_99" d="m223.7,659.5c0,0 4.6,-2.7 8.2,-4c3.6,-1.3 5.4,-2.1 5.1,-2.8s-2.3,-1 -2.3,-1s2.2,-2 3.7,-3s3.1,-2 3.1,-2s0.7,-1.8 -3.4,-4.4c-4.1,-2.6 -8.9,-2.1 -9.9,-1.2s-9.9,9.1 -10.7,14.3c-0.8,5.2 6.2,4.1 6.2,4.1z" fill="#F0C7AD"/>
     <path id="svg_100" d="m185.9,837c0,0 2.2,0.7 6.8,-1c4.6,-1.7 6.8,-2.7 9.7,-2.2c2.9,0.5 1.2,3.6 0,5.1c0,0 -8,8.7 -19.7,10.9c0,0 0.5,1 -0.9,2.4c-1.4,1.4 -14.1,3.7 -14.8,-2.6c1.1,0.2 17.7,-7.6 18.9,-12.6z" fill="#7A4B20"/>
     <path id="svg_101" d="m126.9,825.5c0,0 2.6,-1.9 4.6,-1.7c2,0.2 1.4,3.9 1.4,7.1s-4.9,9 -7.7,11.1s-6.1,7.3 -6.1,7.3s-5.4,6.8 -10.5,2.9c-0.1,0 17.9,-19.4 18.3,-26.7z" fill="#7A4B20"/>
     <path id="svg_102" d="m188.1,787.4c-8.5,-10.7 -20.7,-20.2 -20.7,-20.2l-4.3,-1.2c0,0 -12.7,-1.8 -16.5,2.4c-3.8,-6.4 -11.9,-13.1 -17.8,-8.8c0,0 -6.8,26.7 -9.9,34.7s-11.1,39.5 -11.7,41.8c-0.7,2.4 -2.4,8.3 -1.9,11.6s3.2,4.6 3.2,4.6s4.4,-0.2 9.2,-5.4c4.8,-5.3 9.2,-13.9 9.2,-13.9s2.6,-12.8 4.8,-17.9c2,-4.6 13.4,-28 16.3,-37.2c6.9,11.3 25.3,28.7 25.3,28.7c-5.1,17 -6.3,43.2 -6.3,43.2c13.6,3.1 20.9,-7.8 20.9,-7.8s1,-13.6 2.7,-20.1c1.7,-6.5 5.6,-19.7 5.6,-19.7s0.4,-4.1 -8.1,-14.8z" fill="#4B4B4B"/>
     <path id="svg_103" d="m202.2,670.7l23.2,-11l-5.8,-11.2l-18.9,7.8c0,-0.1 -7.4,6.9 1.5,14.4z" fill="#6E6E6E"/>
     <path id="svg_104" d="m177.2,664.9c0,0 -4.3,-0.1 -8.5,2.5s-24.3,17.9 -33.7,51.9c-9.4,34 -6.3,40.1 -6.3,40.1s7,6.1 13.3,11.1c6.3,4.9 8.8,5.6 8.8,5.6s11.1,-4.4 16.5,-9c0,0 -0.7,-22.6 1.9,-29.4c2.6,-6.8 9.9,-16.5 15,-29.1c5.1,-12.6 3.7,-23.6 3.7,-23.6s-10.4,-12.4 -10.7,-20.1z" fill="#4B4B4B"/>
     <path id="svg_105" d="m184.7,689.9c0,0 -5.4,0.2 -8,6.8c-2.6,6.6 1,10.9 5.4,11.9c4.4,1 27,-5.3 45.7,-14.3c18.7,-9 27.4,-17.3 27.4,-17.3l-5.6,-10.9c0,0 -38.4,21.5 -64.9,23.8z" fill="#6E6E6E"/>
     <path id="svg_106" d="m207.1,652.6l0,16.5c0,0 -1.4,9.4 -12.5,9.1l-6.7,6.8c0,0 -9,-4.7 -9.8,-12.5c-0.8,-7.8 10.3,-19.4 10.3,-19.4s14.6,-7 18.7,-0.5z" fill="#F0C7AD"/>
     <path id="svg_107" d="m178.1,672.6c-3.4,-3.8 -4.4,-11.5 -4,-16.8s3.7,-14.4 13.3,-16.8c9.6,-2.4 15.5,3.4 17.2,5.7c1.7,2.4 5.3,3 5.3,3c0.3,1.1 0.3,4.2 -2.9,4.8c-3.2,0.6 -7.8,4 -7.8,4s-1.6,1.4 -2.8,2.7c0,0 -1.7,2.4 -1.3,4.9c0,0 -5.9,8.9 -17,8.5z" fill="#4C3829"/>
    </g>
    <g id="svg_108">
     <polygon id="svg_109" points="822.0999755859375,775.5 774,802.9000244140625 774,793.0999755859375 823,765.7000122070312 " fill="#EDA76A"/>
     <polygon id="svg_110" points="779.9000244140625,644.9000244140625 731.7999877929688,672.2999877929688 731.7999877929688,662.5999755859375 780.800048828125,635.0999755859375 " fill="#EDA76A"/>
     <polygon id="svg_111" points="795.5,688.4000244140625 747.4000244140625,715.7999877929688 747.4000244140625,706.0999755859375 796.4000244140625,678.5999755859375 " fill="#EDA76A"/>
     <polygon id="svg_112" points="834.9000244140625,811.5 786.9000244140625,838.9000244140625 786.9000244140625,829.0999755859375 835.9000244140625,801.5999755859375 " fill="#EDA76A"/>
     <polygon id="svg_113" points="745.5,526.4000244140625 697.4000244140625,553.7999877929688 697.4000244140625,544.0999755859375 746.4000244140625,516.5999755859375 " fill="#EDA76A"/>
     <polygon id="svg_114" points="757.4000244140625,566.2000122070312 709.4000244140625,593.5999755859375 709.4000244140625,583.9000244140625 758.4000244140625,556.4000244140625 " fill="#EDA76A"/>
     <polygon id="svg_115" points="811.5,734.2999877929688 763.4000244140625,761.7999877929688 763.4000244140625,752 812.4000244140625,724.5 " fill="#EDA76A"/>
     <g id="svg_116">
      <polygon id="svg_117" points="730.9000244140625,443.5 724.5,439 715.5,444.29998779296875 721.9000244140625,448.70001220703125 " fill="#F7B07C"/>
      <polygon id="svg_118" points="715.5,444.29998779296875 836.0999755859375,829.9000244140625 842.199951171875,832 737.0999755859375,481.5999755859375 721.9000244140625,448.70001220703125 " fill="#EDA76A"/>
      <polygon id="svg_119" points="842.199951171875,832 721.9000244140625,448.70001220703125 730.9000244140625,443.5 851.199951171875,826.7999877929688 " fill="#AF7C44"/>
     </g>
     <polygon id="svg_120" points="752.7000122070312,524.7000122070312 697.4000244140625,556.2999877929688 697.4000244140625,546.5999755859375 746.4000244140625,519.0999755859375 " fill="#AF7C44"/>
     <polygon id="svg_121" points="764.7000122070312,564.5 709.4000244140625,596.0999755859375 709.4000244140625,586.4000244140625 758.4000244140625,558.9000244140625 " fill="#AF7C44"/>
     <polygon id="svg_122" points="767.7999877929688,603.4000244140625 719.7999877929688,630.9000244140625 719.7999877929688,621.0999755859375 768.7999877929688,593.5999755859375 " fill="#EDA76A"/>
     <polygon id="svg_123" points="775.0999755859375,601.7999877929688 719.7999877929688,633.4000244140625 719.7999877929688,623.5999755859375 768.7999877929688,596.0999755859375 " fill="#AF7C44"/>
     <polygon id="svg_124" points="787.0999755859375,643.2999877929688 731.7999877929688,674.9000244140625 731.7999877929688,665.0999755859375 780.800048828125,637.5999755859375 " fill="#AF7C44"/>
     <polygon id="svg_125" points="802.800048828125,686.7999877929688 747.4000244140625,718.4000244140625 747.4000244140625,708.5999755859375 796.4000244140625,681.0999755859375 " fill="#AF7C44"/>
     <polygon id="svg_126" points="818.800048828125,732.7000122070312 763.4000244140625,764.2999877929688 763.4000244140625,754.5 812.4000244140625,727 " fill="#AF7C44"/>
     <polygon id="svg_127" points="829.300048828125,773.7999877929688 774,805.4000244140625 774,795.7000122070312 823,768.2000122070312 " fill="#AF7C44"/>
     <polygon id="svg_128" points="842.199951171875,809.7999877929688 786.9000244140625,841.4000244140625 786.9000244140625,831.7000122070312 835.9000244140625,804.2000122070312 " fill="#AF7C44"/>
     <g id="svg_129">
      <polygon id="svg_130" points="677.9000244140625,472.70001220703125 671.5,468.20001220703125 662.5,473.5 668.9000244140625,477.9000244140625 " fill="#F7B07C"/>
      <polygon id="svg_131" points="662.5,473.5 783,859.0999755859375 789.199951171875,861.2999877929688 684.0999755859375,510.79998779296875 668.9000244140625,477.9000244140625 " fill="#EDA76A"/>
      <polygon id="svg_132" points="789.199951171875,861.2999877929688 668.9000244140625,477.9000244140625 677.9000244140625,472.70001220703125 798.199951171875,856.0999755859375 " fill="#AF7C44"/>
     </g>
     <path id="svg_133" d="m790.4,724.8c0,0 5.3,2.3 6.3,5.3s0.5,6.8 -1.5,8.3s-7.3,2 -11.3,4.5s-7.5,7.3 -10.8,8c-3.3,0.8 -9.8,-1.8 -8.3,-5c1.5,-3.3 10,-10 10,-10l15.6,-11.1z" fill="#DE600C"/>
     <path id="svg_134" d="m821.3,781c0,0 0.3,3.5 0,7.5c-0.3,4 -2.8,5 -8,3.8c-5.3,-1.3 -5,-6.5 -10.8,-8.8c-5.8,-2.3 -9,-0.5 -10.8,-2.5c-1.8,-2 0.8,-4.5 5.5,-6.3s13.5,0 13.5,0l10.6,6.3z" fill="#DE600C"/>
     <path id="svg_135" d="m759,657.1c11.5,0 34.6,4 34.6,4l16.8,10.5l21.1,-3.5c0,0 -1.3,15.6 -5,27.3c-3.8,11.8 -2.5,30.4 -2,35.1c0.5,4.8 0.3,37.9 -3.3,50.4c0,0 -6.3,3 -11,0s-5.5,-5 -5.5,-5s0.8,-28.4 0,-36.9c-0.6,-6.6 -4.7,-27.9 -5.9,-42.6c-12.6,0.2 -25.3,-9.6 -25.3,-9.6s11.1,22.3 13.5,26.8c2.3,4.5 5.4,11.5 5.4,11.5s-9,9.6 -18.8,10.9c0,0 -10.8,-24.6 -16.8,-35.4c-6,-10.8 -14.3,-25.6 -14.1,-32.6c0.3,-6.9 4.8,-10.9 16.3,-10.9z" fill="#0F5B78"/>
     <path id="svg_136" d="m779.1,592.8l-2.4,-2.5c0,0 -8.2,-0.7 -11.1,0c-2.9,0.7 -11.8,3.4 -12,7.9s2.4,2.4 6.9,0s5.5,-0.7 5.9,0c0.3,0.7 2.1,4.3 0,6.1c-2.1,1.8 -2.8,1.1 -3.7,3.6s2.7,0.8 6.2,-2.7c3.6,-3.4 7.8,-6.3 7.8,-6.3l2.4,-6.1z" fill="#F0C6AD"/>
     <path id="svg_137" d="m796,585.3c0,0 -16.6,2.3 -19.6,4.5l0,9.8c0,0 15.4,0.8 19.6,3c4.2,2.3 7.2,-8.7 7.2,-8.7l-7.2,-8.6z" fill="#3CDE7A"/>
     <path id="svg_138" d="m797.7,563.4c0,0 -7.2,4.1 -8.7,7.2c-1.5,3 0,13.2 2.3,14.7c2.3,1.5 1.7,7.9 1.8,12.4c0,0 7.7,2.3 13.3,0c5.7,-2.3 6.8,-9.8 6.8,-9.8l-15.5,-24.5z" fill="#F0C6AD"/>
     <path id="svg_139" d="m816.3,584.3c0,0 9,2 13.8,6.5c4.8,4.5 3.8,19.3 1.5,24.6c-2.3,5.3 -1.3,47.9 0,52.7c0,0 -4,10 -12.8,13.3c-8.8,3.3 -18.8,4 -26.3,0s-8.3,-10 -8.3,-10s1.8,-17.1 1,-27.9c-0.8,-10.8 -8.3,-30.6 0.8,-39.4c9,-8.8 15.8,-11.5 15.8,-11.5s9.9,-0.6 14.5,-8.3z" fill="#3CDE7A"/>
     <path id="svg_140" d="m728.2,619.7l-1.5,-5.5c0,0 -1.5,-5 -4,-6.8c-2.5,-1.8 -1.5,0.4 -4.8,2.4c-3.3,1.9 -8.3,2.9 -11.5,1.4s-4.3,0 -2.8,4c1.5,4 2.8,14.1 23.1,9l1.5,-4.5z" fill="#F0C6AD"/>
     <path id="svg_141" d="m784.9,611.4c0,0 -2,-3.8 -9.3,0c-7.3,3.8 -13,15.1 -24.6,13.3c-11.5,-1.8 -24.3,-10.5 -24.3,-10.5s-7.3,5.8 -2.3,12.5c0,0 10,14.6 29.4,15.8c19.3,1.3 40.1,-18.3 31.1,-31.1z" fill="#3CDE7A"/>
     <path id="svg_142" d="m796.2,569.7c0,0 -1.6,-6.5 4.6,-10c6.2,-3.5 12.7,5.3 16.2,8c3.5,2.8 5.3,12.8 2.8,17.3c-2.5,4.5 -5.3,7 -11.3,7.5c-6,0.5 -9.5,-6.3 -9.3,-10.3c0.2,-3.9 -3,-12.5 -3,-12.5z" fill="#4C3829"/>
    </g>
    <g id="svg_143">
     <path id="svg_144" d="m227.8,315.4l-3,-4.6c0,0 -2.3,3.7 -4.6,-2c-2.3,-5.6 1.9,-7.9 4.6,-11c2.7,-3 17.5,-12.2 24,-8.8c6.5,3.4 10.3,10.7 9.9,16.4c-0.4,5.7 -1.5,17.1 -1.5,17.1l-7.6,5.7l-5.7,-1.5l-16.1,-11.3z" fill="#4C3829"/>
     <polygon id="svg_145" points="174.79998779296875,387.5 213.5,398.79998779296875 232.39999389648438,380.5 228.20001220703125,370.20001220703125 232.39999389648438,364.8999938964844 213.5,360.70001220703125 " fill="#4B4B4B"/>
     <polygon id="svg_146" points="213.5,322.6000061035156 174.79998779296875,349.6000061035156 174.79998779296875,387.5 213.5,360.70001220703125 " fill="#4B4B4B"/>
     <polygon id="svg_147" points="209.89999389648438,328.70001220703125 178.5,350.70001220703125 178.5,381.4000244140625 209.89999389648438,359.6000061035156 " fill="#4382E9"/>
     <path id="svg_148" d="m238.5,389.3c0,0 -26.7,10.3 -37,6.9c0,0 -9.1,0 -14.1,8.4s-7.2,24.8 -7.2,30.1c0,0.7 0,1.8 -0.1,3.1l21.5,-12.5c0.2,-4.7 1.5,-4.7 1.5,-4.7s22.5,16.9 39.8,21.8l5.9,-49.2l-10.3,-3.9z" fill="#325863"/>
     <path id="svg_149" d="m224.8,310.8c0,0 3,16 7.2,21.7s13.3,1.5 13.3,1.5l0,6.1l11.8,-4.6l0,-13c0,0 -9.1,3 -12.6,-1.5c-3.4,-4.6 -5.3,-14.5 -8.4,-11.8c-3,2.7 -2.3,5 -2.3,5s-6,1.2 -9,-3.4z" fill="#F0C7AD"/>
     <path id="svg_150" d="m228.2,367.5l-5,-2.7c0,0 -7.2,-2.3 -9.7,-1.5c-2.5,0.8 -8.6,2.3 -5.9,4.2c2.7,1.9 3.8,0 5.9,0s1.4,4.2 4.1,5.1s4.9,2.5 7.2,0c2.3,-2.4 3.4,-5.1 3.4,-5.1z" fill="#F0C7AD"/>
     <path id="svg_151" d="m197.8,391.2c0,0 0,0 0,0c-2.9,0 -4.7,-3.5 -5.8,-4.9c-0.5,-0.2 -1.1,-0.3 -1.7,-0.3c-0.7,0.5 -1.2,1.7 -1.1,2.2c0.2,1 -0.2,2.5 -0.7,2.5c-0.5,0 -2.3,-0.4 -2.3,-0.4c-1.4,-0.4 -3.2,-1.1 -4.3,-1.8c-1.9,-1.3 -3.4,0.6 -3.4,0.6c0.5,7.9 4.7,8.9 4.7,8.9l0,0c0.9,0.5 2.1,1 3.7,1.5c7.6,2.4 15.6,-1.6 15.6,-1.6l0,-5.3c0,0.2 -2.5,-0.4 -4.7,-1.4z" fill="#F0C7AD"/>
     <polygon id="svg_152" points="232.39999389648438,364.8999938964844 223.20001220703125,364.8999938964844 223.20001220703125,375.5 227.79998779296875,380.5 " fill="#4382E9"/>
     <path id="svg_153" d="m249.9,335.5c0,0 -9.9,4.2 -14.5,12.2c-4.6,8 -7.2,19.8 -7.2,19.8l-8.7,20.6c0,0 -18.4,0.4 -22.6,0l-1.5,13.7c0,0 10.7,2.3 19,3.8s17.1,-1.1 18.3,-5c1.1,-3.8 3,-4.6 3,-4.6s1.1,11.8 -2.7,19c-3.8,7.2 -3.8,12.2 -3.8,12.2s4.2,13.7 18.3,16.4c14.1,2.7 32.4,-10.3 32.4,-10.3s1.1,-34.3 1.5,-47.2c0.4,-13 -0.8,-41.9 -5,-48.4c-4.2,-6.5 -13,-6.9 -14.9,-6.9c-1.7,0.2 -8.6,3.2 -11.6,4.7z" fill="#4382E9"/>
    </g>
    <g id="svg_154">
     <path id="svg_155" d="m793.4,941.2c0,0 -3.8,0.9 -4.9,4.6c-1.1,3.7 1.4,6.5 1.9,7.6c0.6,1.1 2.6,1.4 3,2c0.4,0.6 2.7,1.7 4.1,1.4c1.4,-0.3 3.4,-6.8 2,-11s-6.1,-4.6 -6.1,-4.6z" fill="#FCB794"/>
     <path id="svg_156" d="m850.2,964.2c2.1,-9.5 0.6,-30 0.6,-30s-12.9,-2.5 -18.3,10c-6.6,-3.5 -28.2,-1.4 -28.2,-1.4s-7,23.5 -8.1,33.9c-1.2,10.4 2.3,23.8 6.4,33.6c4,9.8 7.9,38.6 8.2,40.4c0.3,1.8 0,5 0,5l10.7,-12.8c0,0 -0.9,-19.6 -2.1,-30.6s-2.5,-22.3 -2.5,-22.3s6,-19 10.3,-25l2,-3.3c0,0 0.3,-0.4 0.7,-1c-0.8,20.5 2.3,41.5 2.6,46.8c0.3,5.9 0,35.9 0,35.9l8.3,3c0,0 0,-4.8 2.7,-18.1s4.2,-46.6 4.5,-52.6c0.1,-5.9 0.1,-2 2.2,-11.5z" fill="#4B4B4B"/>
     <path id="svg_157" d="m812.4,845.2l0.2,-2.1c0,0 -2.4,-4.7 -4.7,-6.7c-2.2,-2.1 -9.6,-6.4 -11.1,-7.1s-3.6,-1.9 -5.5,-1.9c-1.9,0 -0.6,3 2.9,5.2c3.5,2.2 5.2,3.7 5.2,3.7s0.6,2.5 -0.7,2.5s-1.9,1.5 -1.9,1.5s0.6,3.7 1.9,4.9s4.7,4.2 4.7,4.2l11.1,5.6l-2.1,-9.8z" fill="#FCB794"/>
     <path id="svg_158" d="m816.3,879.1c0,0 -9.6,-19.6 -10.8,-22.6c-1.2,-3.1 -3.1,-7.5 -3.1,-7.5l10,-6.9c0,0 13,14.5 13.7,14.9c0.6,0.4 7.5,14.7 7.5,15.5s-3.2,10.4 -3.2,10.4l-14.1,-3.8z" fill="#FEDB59"/>
     <path id="svg_159" d="m818.4,872.8c0,-3.1 0,-6.6 0,-6.6c-5,-4.6 -3.9,-11.2 -3.9,-11.2l-0.1,-3.2c0,0 3.5,5.1 5.8,7c2.3,1.9 3,8.6 10.3,9.6c0,0 3.3,9.6 -4,8.2c-7.2,-1.4 -8.1,-3.8 -8.1,-3.8z" fill="#FCB794"/>
     <path id="svg_160" d="m816.5,857.9c-0.3,-0.6 -2.1,-6.1 -2.1,-6.1s-1.2,-2.3 0,-7.5c1.2,-5.1 6.8,-8.9 12.8,-8.4c6.1,0.5 16.6,4.7 15.7,15.9c0,0 3.7,2.3 5.4,11c1.6,8.6 -2.1,13.8 -5.8,17.3c-3.7,3.5 -4.4,9.1 -4.4,9.1s-8.9,-6.3 -7.5,-20.8c0,0 -8.7,1.4 -14.1,-10.5z" fill="#432312"/>
     <path id="svg_161" d="m846.7,870.5c12.9,8.4 2.6,22 -0.2,30.4c-2.8,8.4 -1.9,19.2 2.3,23.4s4.3,10.8 4.3,10.8c-1.2,3 -12.4,20.3 -31.6,18s-20.3,-12.4 -20.3,-12.4s0.5,-7.5 4.3,-15.4c3.8,-7.9 1.4,-15.9 0.4,-25c-0.9,-9.1 0,-18.2 0,-18.2c11.9,-11.5 27.3,-14.3 27.3,-14.3l13.5,2.7z" fill="#FEDB59"/>
     <path id="svg_162" d="m801.1,887.4c0,0 2.9,-6.8 7.3,-4.6c4.4,2.2 7.6,4 8.2,8.1c0.6,4.1 -2.7,20.6 -2.2,24.7c0.4,4.1 -2.8,11.8 -4.8,15.6c-2.1,3.8 -9.7,18.2 -9.7,18.2l-8.2,-6.2c0,0 5.9,-18.7 6.4,-22.3c0.6,-3.5 3,-19.1 3,-19.1l0,-14.4z" fill="#FEDB59"/>
     <path id="svg_163" d="m838,889.2c0,0 0.7,-5.6 4.4,-9.1s7.5,-8.6 5.8,-17.3c-1.6,-8.6 -5.4,-11 -5.4,-11s-9.1,-0.2 -12.4,16.6c-1.2,14.5 7.6,20.8 7.6,20.8z" fill="#35190D"/>
     <path id="svg_164" d="m834.5,1052.9c0,0 2.1,-0.3 4,2.7c1.9,3.1 1.6,5 1.6,5l3.1,0c0,0 1,-7.5 -0.7,-10.2s-7.5,-0.7 -8,2.5z" fill="#343254"/>
     <path id="svg_165" d="m835.8,1042.9c0,0 -2.1,-0.8 -3.5,0.6c-1.4,1.4 -1,7.3 -6.1,8.6s-1.4,8.1 -1.4,8.1s4.2,1.1 6.6,0s2.8,-10.3 11.2,-9.7c0,0 1.8,-9.2 -6.8,-7.6z" fill="#6E6E6E"/>
     <path id="svg_166" d="m818.2,1056.6c0,0 3.4,2.4 3.1,5.8c-0.3,3.4 0,5.8 0,5.8l4.8,0c0,0 0.6,-10.7 -1,-14.9c-1.7,-4.1 -6.9,3.3 -6.9,3.3z" fill="#343254"/>
     <path id="svg_167" d="m819.2,1043.6c0,0 -3.3,1.4 -5.4,6c-2.1,4.6 -3.9,7.3 -6.6,7.6c-2.7,0.3 -5.2,0.6 -7,2.1c0,0 -1.2,3.4 0.6,6c1.8,2.5 5.9,3.6 8.7,2.5c2.8,-1 5.9,-8.7 9.7,-11.2s6.1,-2.1 6.6,-1.9c0.4,0.1 1.6,-9.4 -4.5,-11.8l-2.1,0.7z" fill="#6E6E6E"/>
    </g>
    <g id="svg_168">
     <polygon id="svg_169" points="193.39999389648438,854.2999877929688 225.79998779296875,871.9000244140625 189.79998779296875,899.5999755859375 157.29998779296875,882 " fill="#E5E5E5"/>
     <path id="svg_170" d="m195.2,902.5c0,0 5,-0.9 7.9,-1.9c2.8,-1.1 7.5,-5.1 8.1,-6.7c0.5,-1.6 1.2,-8.1 0,-9.5c-1.2,-1.4 -5.8,3.5 -7.6,5.1c-1.8,1.6 -1.8,1.6 -1.8,1.6s1.4,-4.2 1.1,-5.3c-0.4,-1.1 -2.5,-1.2 -4.9,1.4c-2.5,2.6 -8.9,8.4 -8.9,8.4l6.1,6.9z" fill="#E9B488"/>
     <path id="svg_171" d="m152.5,1072.2l1.7,1.1c0,0 4,0.6 8.5,-0.6c4.6,-1.1 9.7,-0.9 8.8,3.4c-0.9,4.3 -8.2,7.7 -11.4,9.1c-3.1,1.4 -9.4,3.4 -10.2,4.6c-0.9,1.1 -2.3,2.8 -7.1,1.7c-4.8,-1.1 -5,-3.1 -5,-3.1l0,-17.6l14.7,1.4z" fill="#031E6C"/>
     <path id="svg_172" d="m124.6,1058.8c0,0 5.7,-2.8 7.7,-2.6c2,0.3 4.3,3.4 0,8s-6,6.5 -7.7,10c-1.7,3.4 -2.8,6 -6.8,5.7c-1.2,-0.1 -2.3,-0.4 -3.3,-0.8c-2.5,-1 -4.1,-3.4 -4.1,-6.1l0,-9.1l12.2,-5.7l2,0.6z" fill="#031E6C"/>
     <path id="svg_173" d="m163.9,962.7l1.3,4.3c0,0 -0.5,25.3 -4.4,43.5c-4,18.2 -6.5,62.9 -6.5,62.9s-0.9,4.3 -6.3,4.6s-10.8,-3.1 -10.8,-3.1s-0.9,-26.5 0,-42.1c0.9,-15.6 1.8,-25 -0.4,-33c0,0 -1.9,17.4 -4.7,27.9c-2.8,10.5 -5.4,29 -6.5,37c0,0 -1.1,5.1 -5.4,5.1s-5.7,-0.9 -8.5,-4.3c0,0 -1.4,-25.3 -1.1,-36.4c0.3,-11.1 6.3,-26.5 6.3,-26.5s-1.4,-40.1 -0.9,-50.9c0.6,-10.8 19.6,-18.5 19.6,-18.5l28.3,29.5z" fill="#A78264"/>
     <path id="svg_174" d="m158.5,824.5l0,20.8c0,0 0.3,7.1 -2.6,8.2c-2.8,1.1 -6.3,0 -6.3,0l0,6.3c0,0 -8.2,1.7 -14.8,-3.1l0,-6.5l10.2,-21c0.1,-0.2 10.6,-6.7 13.5,-4.7z" fill="#E9B488"/>
     <path id="svg_175" d="m149.6,859.7c0,0 9.1,3.4 14.5,8.5s4.8,14.8 5.4,22.5c0.6,7.7 1.7,12.8 1.7,12.8s14.8,-8.8 16.5,-9.4c0,0 9.4,2 7.1,11.1c0,0 -11.4,8 -17.6,12.2c-6.3,4.3 -11.9,8 -15.9,8c0,0 1.4,8 4,17.6c2.6,9.7 1.7,23 1.7,23s-10.2,5.7 -19.3,4.8c-9.1,-0.9 -12.8,-3.7 -12.8,-3.7l-4.3,-17.1l0,14.2c0,0 -10.5,-5.1 -14.8,-12.8c0,0 0.6,-15.9 1.7,-21.3c1.1,-5.4 -6.5,-25.6 -8.8,-33.6c-2.3,-8 3.1,-33.3 5.4,-38.4s11.4,-10 20.8,-5.4l14.7,7z" fill="#656356"/>
     <path id="svg_176" d="m158.5,824.5c0,0 0.6,-4.8 -4,-7.7c-4.6,-2.8 -12.8,-3.1 -18.5,0s-10,7.7 -9.4,17.4c0.6,9.7 8.2,17.4 8.2,17.4s3.1,0.9 9.7,-6c6.5,-6.8 8.1,-15.7 9.7,-18.5c1.6,-2.9 4.3,-2.6 4.3,-2.6z" fill="#713D23"/>
    </g>
    <g id="svg_177">
     <g id="svg_178">
      <g id="svg_179">
       <path id="svg_180" d="m437.2,873.7c0,0.1 0,0.3 0,0.4c0,0.1 0,0.2 0,0.4c0,0.1 0,0.3 -0.1,0.4c0,0.1 0,0.2 -0.1,0.4c0,0.1 -0.1,0.3 -0.1,0.4c0,0.1 -0.1,0.2 -0.1,0.4c0,0.1 -0.1,0.3 -0.1,0.4c0,0.1 -0.1,0.2 -0.1,0.3c-0.1,0.1 -0.1,0.3 -0.2,0.4c-0.1,0.1 -0.1,0.2 -0.2,0.3c-0.1,0.1 -0.1,0.3 -0.2,0.4c-0.1,0.1 -0.1,0.2 -0.2,0.3c-0.1,0.2 -0.2,0.3 -0.3,0.5c-0.1,0.1 -0.1,0.2 -0.2,0.3c-0.1,0.2 -0.2,0.3 -0.4,0.5c-0.1,0.1 -0.1,0.2 -0.2,0.2c-0.2,0.3 -0.5,0.5 -0.7,0.8c-0.1,0.1 -0.1,0.1 -0.2,0.2c-0.2,0.2 -0.4,0.4 -0.6,0.6c-0.1,0.1 -0.2,0.2 -0.3,0.3c-0.1,0.1 -0.3,0.2 -0.4,0.3c-0.1,0.1 -0.2,0.2 -0.4,0.3c-0.1,0.1 -0.3,0.2 -0.4,0.3c-0.1,0.1 -0.3,0.2 -0.4,0.3c-0.1,0.1 -0.3,0.2 -0.5,0.3c-0.1,0.1 -0.3,0.2 -0.4,0.3c-0.2,0.1 -0.3,0.2 -0.5,0.3c-0.2,0.1 -0.4,0.3 -0.6,0.4c-0.6,0.3 -1.2,0.7 -1.8,1c-0.2,0.1 -0.3,0.2 -0.5,0.2c-0.6,0.3 -1.1,0.5 -1.7,0.7c-0.1,0 -0.2,0.1 -0.2,0.1c-0.6,0.2 -1.3,0.5 -1.9,0.7c-0.5,0.1 -0.9,0.3 -1.4,0.4c-0.4,0.1 -0.7,0.2 -1.1,0.3c-0.5,0.1 -1,0.2 -1.5,0.3c-0.4,0.1 -0.7,0.2 -1.1,0.2c-0.2,0 -0.3,0 -0.5,0.1c-0.6,0.1 -1.2,0.2 -1.9,0.3c-0.2,0 -0.4,0 -0.6,0.1c-0.4,0 -0.7,0.1 -1.1,0.1c-0.6,0.1 -1.2,0.1 -1.8,0.1c-0.4,0 -0.8,0 -1.2,0c-0.5,0 -1,0 -1.5,0c-0.4,0 -0.8,0 -1.2,0c-0.5,0 -0.9,0 -1.4,-0.1c-0.4,0 -0.8,-0.1 -1.3,-0.1c-0.5,0 -0.9,-0.1 -1.3,-0.2c-0.4,-0.1 -0.8,-0.1 -1.2,-0.2c-0.5,-0.1 -1,-0.2 -1.4,-0.2c-0.4,-0.1 -0.8,-0.1 -1.1,-0.2c-0.6,-0.1 -1.1,-0.3 -1.7,-0.4c-0.4,-0.1 -0.7,-0.2 -1.1,-0.3c-0.2,-0.1 -0.4,-0.1 -0.6,-0.2c-0.6,-0.2 -1.1,-0.4 -1.6,-0.6c-0.2,-0.1 -0.3,-0.1 -0.5,-0.2c-0.5,-0.2 -1,-0.4 -1.4,-0.6c-0.2,-0.1 -0.5,-0.2 -0.7,-0.3c-0.7,-0.3 -1.3,-0.7 -2,-1c-3.7,-2.1 -6.1,-4.7 -7.2,-7.4c-0.5,-1.2 -0.8,-2.5 -0.8,-3.8l0,7.6c0,4 2.7,8.1 8,11.2c0.6,0.4 1.3,0.7 2,1c0.2,0.1 0.5,0.2 0.7,0.3c0.4,0.2 0.8,0.4 1.2,0.5c0.1,0 0.1,0.1 0.2,0.1c0.2,0.1 0.3,0.1 0.5,0.2c0.5,0.2 1.1,0.4 1.6,0.6c0.2,0.1 0.4,0.1 0.6,0.2c0.1,0 0.3,0.1 0.4,0.1c0.2,0.1 0.5,0.1 0.7,0.2c0.6,0.1 1.1,0.3 1.7,0.4c0.2,0 0.3,0.1 0.4,0.1c0.2,0 0.5,0.1 0.7,0.1c0.5,0.1 1,0.2 1.4,0.2c0.2,0 0.4,0.1 0.6,0.1c0.2,0 0.4,0 0.6,0.1c0.4,0.1 0.9,0.1 1.3,0.2c0.2,0 0.4,0.1 0.6,0.1c0.2,0 0.4,0 0.6,0c0.5,0 0.9,0.1 1.4,0.1c0.2,0 0.5,0 0.7,0c0.2,0 0.4,0 0.6,0c0.5,0 1,0 1.5,0c0.2,0 0.5,0 0.7,0c0.1,0 0.3,0 0.4,0c0.6,0 1.2,-0.1 1.8,-0.1c0.2,0 0.5,0 0.7,0c0.1,0 0.2,0 0.4,0c0.2,0 0.4,0 0.5,-0.1c0.6,-0.1 1.3,-0.2 1.9,-0.3c0.2,0 0.3,0 0.5,-0.1c0.1,0 0.1,0 0.2,0c0.3,-0.1 0.6,-0.1 0.9,-0.2c0.5,-0.1 1,-0.2 1.5,-0.3c0.4,-0.1 0.7,-0.2 1.1,-0.3c0.5,-0.1 0.9,-0.3 1.4,-0.4c0.1,0 0.2,-0.1 0.3,-0.1c0.6,-0.2 1.1,-0.4 1.6,-0.6c0.1,0 0.2,-0.1 0.2,-0.1c0.6,-0.2 1.2,-0.5 1.7,-0.7c0.2,-0.1 0.3,-0.2 0.5,-0.2c0.6,-0.3 1.2,-0.6 1.8,-1c0.1,-0.1 0.2,-0.1 0.3,-0.2c0.1,-0.1 0.2,-0.1 0.3,-0.2c0.2,-0.1 0.3,-0.2 0.5,-0.3c0.1,-0.1 0.3,-0.2 0.4,-0.3c0.2,-0.1 0.3,-0.2 0.5,-0.3c0.1,-0.1 0.3,-0.2 0.4,-0.3c0.1,-0.1 0.3,-0.2 0.4,-0.3c0.1,-0.1 0.3,-0.2 0.4,-0.3c0.1,-0.1 0.3,-0.2 0.4,-0.3c0.1,0 0.1,-0.1 0.2,-0.1c0,0 0.1,-0.1 0.1,-0.1c0.2,-0.2 0.4,-0.4 0.6,-0.6c0.1,-0.1 0.1,-0.1 0.2,-0.2c0.2,-0.3 0.5,-0.5 0.7,-0.8c0,0 0,0 0,0c0.1,-0.1 0.1,-0.1 0.1,-0.2c0.1,-0.2 0.3,-0.3 0.4,-0.5c0.1,-0.1 0.1,-0.2 0.2,-0.3c0.1,-0.2 0.2,-0.3 0.3,-0.5c0,0 0.1,-0.1 0.1,-0.1c0,-0.1 0.1,-0.1 0.1,-0.2c0.1,-0.1 0.1,-0.3 0.2,-0.4c0.1,-0.1 0.1,-0.2 0.2,-0.3c0.1,-0.1 0.1,-0.3 0.2,-0.4c0,-0.1 0.1,-0.1 0.1,-0.2c0,-0.1 0,-0.1 0.1,-0.2c0,-0.1 0.1,-0.3 0.1,-0.4c0,-0.1 0.1,-0.2 0.1,-0.4c0,-0.1 0.1,-0.3 0.1,-0.4c0,-0.1 0,-0.1 0.1,-0.2c0,0 0,-0.1 0,-0.1c0,-0.1 0,-0.3 0.1,-0.4c0,-0.1 0,-0.2 0,-0.4c0,-0.1 0,-0.3 0,-0.4c0,-0.1 0,-0.2 0,-0.2c0,-0.1 0,-0.2 0,-0.2l0,-7.6c0.3,-0.1 0.2,0.1 0.2,0.2z" fill="#EFC100"/>
       <g id="svg_181">
        <path id="svg_182" d="m429.3,862.1c10.6,6.1 10.6,16 0.1,22.2c-10.5,6.1 -27.7,6.1 -38.3,0c-10.6,-6.1 -10.7,-16 -0.1,-22.2c10.5,-6.1 27.7,-6.1 38.3,0z" fill="#FDD400"/>
       </g>
       <g id="svg_183">
        <path id="svg_184" d="m419,871.6c2.3,1.3 2.7,3.4 0.2,5.5l2.7,1.5l-2.6,1.5l-2.5,-1.4c-1.8,1 -4,1.7 -5.5,1.9l-2.3,-2.2c1.7,-0.3 3.7,-0.9 5.4,-1.8c1.5,-0.9 1.9,-1.8 0.9,-2.4c-1,-0.6 -2.5,-0.5 -5,0.3c-3.7,1.1 -6.9,1.4 -9.5,0c-2.3,-1.3 -2.5,-3.3 -0.3,-5.2l-2.5,-1.4l2.6,-1.5l2.3,1.3c1.8,-1 3.4,-1.4 4.6,-1.7l2.2,2.2c-1,0.2 -2.8,0.6 -4.6,1.7c-1.7,1 -1.5,1.7 -0.8,2.1c0.9,0.5 2.3,0.3 5.4,-0.5c4.3,-1.4 7,-1.3 9.3,0.1z" fill="#EC8659"/>
       </g>
      </g>
     </g>
     <g id="svg_185">
      <g id="svg_186">
       <path id="svg_187" d="m437.2,861.4c0,0.1 0,0.3 0,0.4c0,0.1 0,0.2 0,0.4c0,0.1 0,0.3 -0.1,0.4c0,0.1 0,0.2 -0.1,0.4c0,0.1 -0.1,0.3 -0.1,0.4c0,0.1 -0.1,0.2 -0.1,0.4c0,0.1 -0.1,0.3 -0.1,0.4c0,0.1 -0.1,0.2 -0.1,0.3c-0.1,0.1 -0.1,0.3 -0.2,0.4c-0.1,0.1 -0.1,0.2 -0.2,0.3c-0.1,0.1 -0.1,0.3 -0.2,0.4c-0.1,0.1 -0.1,0.2 -0.2,0.3c-0.1,0.2 -0.2,0.3 -0.3,0.5c-0.1,0.1 -0.1,0.2 -0.2,0.3c-0.1,0.2 -0.2,0.3 -0.4,0.5c-0.1,0.1 -0.1,0.2 -0.2,0.2c-0.2,0.3 -0.5,0.5 -0.7,0.8c-0.1,0.1 -0.1,0.1 -0.2,0.2c-0.2,0.2 -0.4,0.4 -0.6,0.6c-0.1,0.1 -0.2,0.2 -0.3,0.3c-0.1,0.1 -0.3,0.2 -0.4,0.3c-0.1,0.1 -0.2,0.2 -0.4,0.3c-0.1,0.1 -0.3,0.2 -0.4,0.3c-0.1,0.1 -0.3,0.2 -0.4,0.3c-0.1,0.1 -0.3,0.2 -0.5,0.3c-0.1,0.1 -0.3,0.2 -0.4,0.3c-0.2,0.1 -0.3,0.2 -0.5,0.3c-0.2,0.1 -0.4,0.3 -0.6,0.4c-0.6,0.3 -1.2,0.7 -1.8,1c-0.2,0.1 -0.3,0.2 -0.5,0.2c-0.6,0.3 -1.1,0.5 -1.7,0.7c-0.1,0 -0.2,0.1 -0.2,0.1c-0.6,0.2 -1.3,0.5 -1.9,0.7c-0.5,0.1 -0.9,0.3 -1.4,0.4c-0.4,0.1 -0.7,0.2 -1.1,0.3c-0.5,0.1 -1,0.2 -1.5,0.3c-0.4,0.1 -0.7,0.2 -1.1,0.2c-0.2,0 -0.3,0 -0.5,0.1c-0.6,0.1 -1.2,0.2 -1.9,0.3c-0.2,0 -0.4,0 -0.6,0.1c-0.4,0 -0.7,0.1 -1.1,0.1c-0.6,0.1 -1.2,0.1 -1.8,0.1c-0.4,0 -0.8,0 -1.2,0c-0.5,0 -1,0 -1.5,0c-0.4,0 -0.8,0 -1.2,0c-0.5,0 -0.9,0 -1.4,-0.1c-0.4,0 -0.8,-0.1 -1.3,-0.1c-0.5,0 -0.9,-0.1 -1.3,-0.2c-0.4,-0.1 -0.8,-0.1 -1.2,-0.2c-0.5,-0.1 -1,-0.2 -1.4,-0.2c-0.4,-0.1 -0.8,-0.1 -1.1,-0.2c-0.6,-0.1 -1.1,-0.3 -1.7,-0.4c-0.4,-0.1 -0.7,-0.2 -1.1,-0.3c-0.2,-0.1 -0.4,-0.1 -0.6,-0.2c-0.6,-0.2 -1.1,-0.4 -1.6,-0.6c-0.2,-0.1 -0.3,-0.1 -0.5,-0.2c-0.5,-0.2 -1,-0.4 -1.4,-0.6c-0.2,-0.1 -0.5,-0.2 -0.7,-0.3c-0.7,-0.3 -1.3,-0.7 -2,-1c-3.7,-2.1 -6.1,-4.7 -7.2,-7.4c-0.5,-1.2 -0.8,-2.5 -0.8,-3.8l0,7.6c0,4 2.7,8.1 8,11.2c0.6,0.4 1.3,0.7 2,1c0.2,0.1 0.5,0.2 0.7,0.3c0.4,0.2 0.8,0.4 1.2,0.5c0.1,0 0.1,0.1 0.2,0.1c0.2,0.1 0.3,0.1 0.5,0.2c0.5,0.2 1.1,0.4 1.6,0.6c0.2,0.1 0.4,0.1 0.6,0.2c0.1,0 0.3,0.1 0.4,0.1c0.2,0.1 0.5,0.1 0.7,0.2c0.6,0.1 1.1,0.3 1.7,0.4c0.2,0 0.3,0.1 0.4,0.1c0.2,0 0.5,0.1 0.7,0.1c0.5,0.1 1,0.2 1.4,0.2c0.2,0 0.4,0.1 0.6,0.1c0.2,0 0.4,0 0.6,0.1c0.4,0.1 0.9,0.1 1.3,0.2c0.2,0 0.4,0.1 0.6,0.1c0.2,0 0.4,0 0.6,0c0.5,0 0.9,0.1 1.4,0.1c0.2,0 0.5,0 0.7,0c0.2,0 0.4,0 0.6,0c0.5,0 1,0 1.5,0c0.2,0 0.5,0 0.7,0c0.1,0 0.3,0 0.4,0c0.6,0 1.2,-0.1 1.8,-0.1c0.2,0 0.5,0 0.7,0c0.1,0 0.2,0 0.4,0c0.2,0 0.4,0 0.5,-0.1c0.6,-0.1 1.3,-0.2 1.9,-0.3c0.2,0 0.3,0 0.5,-0.1c0.1,0 0.1,0 0.2,0c0.3,-0.1 0.6,-0.1 0.9,-0.2c0.5,-0.1 1,-0.2 1.5,-0.3c0.4,-0.1 0.7,-0.2 1.1,-0.3c0.5,-0.1 0.9,-0.3 1.4,-0.4c0.1,0 0.2,-0.1 0.3,-0.1c0.6,-0.2 1.1,-0.4 1.6,-0.6c0.1,0 0.2,-0.1 0.2,-0.1c0.6,-0.2 1.2,-0.5 1.7,-0.7c0.2,-0.1 0.3,-0.2 0.5,-0.2c0.6,-0.3 1.2,-0.6 1.8,-1c0.1,-0.1 0.2,-0.1 0.3,-0.2c0.1,-0.1 0.2,-0.1 0.3,-0.2c0.2,-0.1 0.3,-0.2 0.5,-0.3c0.1,-0.1 0.3,-0.2 0.4,-0.3c0.2,-0.1 0.3,-0.2 0.5,-0.3c0.1,-0.1 0.3,-0.2 0.4,-0.3c0.1,-0.1 0.3,-0.2 0.4,-0.3c0.1,-0.1 0.3,-0.2 0.4,-0.3c0.1,-0.1 0.3,-0.2 0.4,-0.3c0.1,0 0.1,-0.1 0.2,-0.1c0,0 0.1,-0.1 0.1,-0.1c0.2,-0.2 0.4,-0.4 0.6,-0.6c0.1,-0.1 0.1,-0.1 0.2,-0.2c0.2,-0.3 0.5,-0.5 0.7,-0.8c0,0 0,0 0,0c0.1,-0.1 0.1,-0.1 0.1,-0.2c0.1,-0.2 0.3,-0.3 0.4,-0.5c0.1,-0.1 0.1,-0.2 0.2,-0.3c0.1,-0.2 0.2,-0.3 0.3,-0.5c0,0 0.1,-0.1 0.1,-0.1c0,-0.1 0.1,-0.1 0.1,-0.2c0.1,-0.1 0.1,-0.3 0.2,-0.4c0.1,-0.1 0.1,-0.2 0.2,-0.3c0.1,-0.1 0.1,-0.3 0.2,-0.4c0,-0.1 0.1,-0.1 0.1,-0.2c0,-0.1 0,-0.1 0.1,-0.2c0,-0.1 0.1,-0.3 0.1,-0.4c0,-0.1 0.1,-0.2 0.1,-0.4c0,-0.1 0.1,-0.3 0.1,-0.4c0,-0.1 0,-0.1 0.1,-0.2c0,0 0,-0.1 0,-0.1c0,-0.1 0,-0.3 0.1,-0.4c0,-0.1 0,-0.2 0,-0.4c0,-0.1 0,-0.3 0,-0.4c0,-0.1 0,-0.2 0,-0.2c0,-0.1 0,-0.2 0,-0.2l0,-7.6c0.3,-0.1 0.2,0.1 0.2,0.2z" fill="#EFC100"/>
       <g id="svg_188">
        <path id="svg_189" d="m429.3,849.8c10.6,6.1 10.6,16 0.1,22.2c-10.5,6.1 -27.7,6.1 -38.3,0c-10.6,-6.1 -10.7,-16 -0.1,-22.2c10.5,-6.1 27.7,-6.1 38.3,0z" fill="#FDD400"/>
       </g>
       <g id="svg_190">
        <path id="svg_191" d="m419,859.3c2.3,1.3 2.7,3.4 0.2,5.5l2.7,1.5l-2.6,1.5l-2.5,-1.4c-1.8,1 -4,1.7 -5.5,1.9l-2.3,-2.2c1.7,-0.3 3.7,-0.9 5.4,-1.8c1.5,-0.9 1.9,-1.8 0.9,-2.4c-1,-0.6 -2.5,-0.5 -5,0.3c-3.7,1.1 -6.9,1.4 -9.5,0c-2.3,-1.3 -2.5,-3.3 -0.3,-5.2l-2.5,-1.4l2.6,-1.5l2.3,1.3c1.8,-1 3.4,-1.4 4.6,-1.7l2.2,2.2c-1,0.2 -2.8,0.6 -4.6,1.7c-1.7,1 -1.5,1.7 -0.8,2.1c0.9,0.5 2.3,0.3 5.4,-0.5c4.3,-1.4 7,-1.3 9.3,0.1z" fill="#EC8659"/>
       </g>
      </g>
     </g>
     <g id="svg_192">
      <g id="svg_193">
       <path id="svg_194" d="m431.5,850.3c0,0.1 0,0.3 0,0.4c0,0.1 0,0.2 0,0.4c0,0.1 0,0.3 -0.1,0.4c0,0.1 0,0.2 -0.1,0.4c0,0.1 -0.1,0.3 -0.1,0.4c0,0.1 -0.1,0.2 -0.1,0.4c0,0.1 -0.1,0.3 -0.1,0.4c0,0.1 -0.1,0.2 -0.1,0.3c-0.1,0.1 -0.1,0.3 -0.2,0.4c-0.1,0.1 -0.1,0.2 -0.2,0.3c-0.1,0.1 -0.1,0.3 -0.2,0.4c-0.1,0.1 -0.1,0.2 -0.2,0.3c-0.1,0.2 -0.2,0.3 -0.3,0.5c-0.1,0.1 -0.1,0.2 -0.2,0.3c-0.1,0.2 -0.2,0.3 -0.4,0.5c-0.1,0.1 -0.1,0.2 -0.2,0.2c-0.2,0.3 -0.5,0.5 -0.7,0.8c-0.1,0.1 -0.1,0.1 -0.2,0.2c-0.2,0.2 -0.4,0.4 -0.6,0.6c-0.1,0.1 -0.2,0.2 -0.3,0.3c-0.1,0.1 -0.3,0.2 -0.4,0.3c-0.1,0.1 -0.2,0.2 -0.4,0.3c-0.1,0.1 -0.3,0.2 -0.4,0.3c-0.1,0.1 -0.3,0.2 -0.4,0.3c-0.1,0.1 -0.3,0.2 -0.5,0.3c-0.1,0.1 -0.3,0.2 -0.4,0.3c-0.2,0.1 -0.3,0.2 -0.5,0.3c-0.2,0.1 -0.4,0.3 -0.6,0.4c-0.6,0.3 -1.2,0.7 -1.8,1c-0.2,0.1 -0.3,0.2 -0.5,0.2c-0.6,0.3 -1.1,0.5 -1.7,0.7c-0.1,0 -0.2,0.1 -0.2,0.1c-0.6,0.2 -1.3,0.5 -1.9,0.7c-0.5,0.1 -0.9,0.3 -1.4,0.4c-0.4,0.1 -0.7,0.2 -1.1,0.3c-0.5,0.1 -1,0.2 -1.5,0.3c-0.4,0.1 -0.7,0.2 -1.1,0.2c-0.2,0 -0.3,0 -0.5,0.1c-0.6,0.1 -1.2,0.2 -1.9,0.3c-0.2,0 -0.4,0 -0.6,0.1c-0.4,0 -0.7,0.1 -1.1,0.1c-0.6,0.1 -1.2,0.1 -1.8,0.1c-0.4,0 -0.8,0 -1.2,0c-0.5,0 -1,0 -1.5,0c-0.4,0 -0.8,0 -1.2,0c-0.5,0 -0.9,0 -1.4,-0.1c-0.4,0 -0.8,-0.1 -1.3,-0.1c-0.5,0 -0.9,-0.1 -1.3,-0.2c-0.4,-0.1 -0.8,-0.1 -1.2,-0.2c-0.5,-0.1 -1,-0.2 -1.4,-0.2c-0.4,-0.1 -0.8,-0.1 -1.1,-0.2c-0.6,-0.1 -1.1,-0.3 -1.7,-0.4c-0.4,-0.1 -0.7,-0.2 -1.1,-0.3c-0.2,-0.1 -0.4,-0.1 -0.6,-0.2c-0.6,-0.2 -1.1,-0.4 -1.6,-0.6c-0.2,-0.1 -0.3,-0.1 -0.5,-0.2c-0.5,-0.2 -1,-0.4 -1.4,-0.6c-0.2,-0.1 -0.5,-0.2 -0.7,-0.3c-0.7,-0.3 -1.3,-0.7 -2,-1c-3.7,-2.1 -6.1,-4.7 -7.2,-7.4c-0.5,-1.2 -0.8,-2.5 -0.8,-3.8l0,7.6c0,4 2.7,8.1 8,11.2c0.6,0.4 1.3,0.7 2,1c0.2,0.1 0.5,0.2 0.7,0.3c0.4,0.2 0.8,0.4 1.2,0.5c0.1,0 0.1,0.1 0.2,0.1c0.2,0.1 0.3,0.1 0.5,0.2c0.5,0.2 1.1,0.4 1.6,0.6c0.2,0.1 0.4,0.1 0.6,0.2c0.1,0 0.3,0.1 0.4,0.1c0.2,0.1 0.5,0.1 0.7,0.2c0.6,0.1 1.1,0.3 1.7,0.4c0.2,0 0.3,0.1 0.4,0.1c0.2,0 0.5,0.1 0.7,0.1c0.5,0.1 1,0.2 1.4,0.2c0.2,0 0.4,0.1 0.6,0.1c0.2,0 0.4,0 0.6,0.1c0.4,0.1 0.9,0.1 1.3,0.2c0.2,0 0.4,0.1 0.6,0.1c0.2,0 0.4,0 0.6,0c0.5,0 0.9,0.1 1.4,0.1c0.2,0 0.5,0 0.7,0c0.2,0 0.4,0 0.6,0c0.5,0 1,0 1.5,0c0.2,0 0.5,0 0.7,0c0.1,0 0.3,0 0.4,0c0.6,0 1.2,-0.1 1.8,-0.1c0.2,0 0.5,0 0.7,0c0.1,0 0.2,0 0.4,0c0.2,0 0.4,0 0.5,-0.1c0.6,-0.1 1.3,-0.2 1.9,-0.3c0.2,0 0.3,0 0.5,-0.1c0.1,0 0.1,0 0.2,0c0.3,-0.1 0.6,-0.1 0.9,-0.2c0.5,-0.1 1,-0.2 1.5,-0.3c0.4,-0.1 0.7,-0.2 1.1,-0.3c0.5,-0.1 0.9,-0.3 1.4,-0.4c0.1,0 0.2,-0.1 0.3,-0.1c0.6,-0.2 1.1,-0.4 1.6,-0.6c0.1,0 0.2,-0.1 0.2,-0.1c0.6,-0.2 1.2,-0.5 1.7,-0.7c0.2,-0.1 0.3,-0.2 0.5,-0.2c0.6,-0.3 1.2,-0.6 1.8,-1c0.1,-0.1 0.2,-0.1 0.3,-0.2c0.1,-0.1 0.2,-0.1 0.3,-0.2c0.2,-0.1 0.3,-0.2 0.5,-0.3c0.1,-0.1 0.3,-0.2 0.4,-0.3c0.2,-0.1 0.3,-0.2 0.5,-0.3c0.1,-0.1 0.3,-0.2 0.4,-0.3c0.1,-0.1 0.3,-0.2 0.4,-0.3c0.1,-0.1 0.3,-0.2 0.4,-0.3c0.1,-0.1 0.3,-0.2 0.4,-0.3c0.1,0 0.1,-0.1 0.2,-0.1c0,0 0.1,-0.1 0.1,-0.1c0.2,-0.2 0.4,-0.4 0.6,-0.6c0.1,-0.1 0.1,-0.1 0.2,-0.2c0.2,-0.3 0.5,-0.5 0.7,-0.8c0,0 0,0 0,0c0.1,-0.1 0.1,-0.1 0.1,-0.2c0.1,-0.2 0.3,-0.3 0.4,-0.5c0.1,-0.1 0.1,-0.2 0.2,-0.3c0.1,-0.2 0.2,-0.3 0.3,-0.5c0,0 0.1,-0.1 0.1,-0.1c0,-0.1 0.1,-0.1 0.1,-0.2c0.1,-0.1 0.1,-0.3 0.2,-0.4c0.1,-0.1 0.1,-0.2 0.2,-0.3c0.1,-0.1 0.1,-0.3 0.2,-0.4c0,-0.1 0.1,-0.1 0.1,-0.2c0,-0.1 0,-0.1 0.1,-0.2c0,-0.1 0.1,-0.3 0.1,-0.4c0,-0.1 0.1,-0.2 0.1,-0.4c0,-0.1 0.1,-0.3 0.1,-0.4c0,-0.1 0,-0.1 0.1,-0.2c0,0 0,-0.1 0,-0.1c0,-0.1 0,-0.3 0.1,-0.4c0,-0.1 0,-0.2 0,-0.4c0,-0.1 0,-0.3 0,-0.4c0,-0.1 0,-0.2 0,-0.2c0,-0.1 0,-0.2 0,-0.2l0,-7.6c0.3,-0.1 0.2,0 0.2,0.2z" fill="#EFC100"/>
       <g id="svg_195">
        <path id="svg_196" d="m423.6,838.6c10.6,6.1 10.6,16 0.1,22.2c-10.5,6.1 -27.7,6.1 -38.3,0c-10.6,-6.1 -10.7,-16 -0.1,-22.2c10.5,-6.1 27.7,-6.1 38.3,0z" fill="#FDD400"/>
       </g>
       <g id="svg_197">
        <path id="svg_198" d="m413.3,848.1c2.3,1.3 2.7,3.4 0.2,5.5l2.7,1.5l-2.6,1.5l-2.5,-1.4c-1.8,1 -4,1.7 -5.5,1.9l-2.3,-2.2c1.7,-0.3 3.7,-0.9 5.4,-1.8c1.5,-0.9 1.9,-1.8 0.9,-2.4c-1,-0.6 -2.5,-0.5 -5,0.3c-3.7,1.1 -6.9,1.4 -9.5,0c-2.3,-1.3 -2.5,-3.3 -0.3,-5.2l-2.5,-1.4l2.6,-1.5l2.3,1.3c1.8,-1 3.4,-1.4 4.6,-1.7l2.2,2.2c-1,0.2 -2.8,0.6 -4.6,1.7c-1.7,1 -1.5,1.7 -0.8,2.1c0.9,0.5 2.3,0.3 5.4,-0.5c4.3,-1.4 7,-1.3 9.3,0.1z" fill="#EC8659"/>
       </g>
      </g>
     </g>
     <g id="svg_199">
      <g id="svg_200">
       <path id="svg_201" d="m424.2,836.4c0,0.1 0,0.3 0,0.4c0,0.1 0,0.2 0,0.4c0,0.1 0,0.3 -0.1,0.4c0,0.1 0,0.2 -0.1,0.4c0,0.1 -0.1,0.3 -0.1,0.4c0,0.1 -0.1,0.2 -0.1,0.4c0,0.1 -0.1,0.3 -0.1,0.4c0,0.1 -0.1,0.2 -0.1,0.3c-0.1,0.1 -0.1,0.3 -0.2,0.4c-0.1,0.1 -0.1,0.2 -0.2,0.3c-0.1,0.1 -0.1,0.3 -0.2,0.4c-0.1,0.1 -0.1,0.2 -0.2,0.3c-0.1,0.2 -0.2,0.3 -0.3,0.5c-0.1,0.1 -0.1,0.2 -0.2,0.3c-0.1,0.2 -0.2,0.3 -0.4,0.5c-0.1,0.1 -0.1,0.2 -0.2,0.2c-0.2,0.3 -0.5,0.5 -0.7,0.8c-0.1,0.1 -0.1,0.1 -0.2,0.2c-0.2,0.2 -0.4,0.4 -0.6,0.6c-0.1,0.1 -0.2,0.2 -0.3,0.3c-0.1,0.1 -0.3,0.2 -0.4,0.3c-0.1,0.1 -0.2,0.2 -0.4,0.3c-0.1,0.1 -0.3,0.2 -0.4,0.3c-0.1,0.1 -0.3,0.2 -0.4,0.3c-0.1,0.1 -0.3,0.2 -0.5,0.3c-0.1,0.1 -0.3,0.2 -0.4,0.3c-0.2,0.1 -0.3,0.2 -0.5,0.3c-0.2,0.1 -0.4,0.3 -0.6,0.4c-0.6,0.3 -1.2,0.7 -1.8,1c-0.2,0.1 -0.3,0.2 -0.5,0.2c-0.6,0.3 -1.1,0.5 -1.7,0.7c-0.1,0 -0.2,0.1 -0.2,0.1c-0.6,0.2 -1.3,0.5 -1.9,0.7c-0.5,0.1 -0.9,0.3 -1.4,0.4c-0.4,0.1 -0.7,0.2 -1.1,0.3c-0.5,0.1 -1,0.2 -1.5,0.3c-0.4,0.1 -0.7,0.2 -1.1,0.2c-0.2,0 -0.3,0 -0.5,0.1c-0.6,0.1 -1.2,0.2 -1.9,0.3c-0.2,0 -0.4,0 -0.6,0.1c-0.4,0 -0.7,0.1 -1.1,0.1c-0.6,0.1 -1.2,0.1 -1.8,0.1c-0.4,0 -0.8,0 -1.2,0c-0.5,0 -1,0 -1.5,0c-0.4,0 -0.8,0 -1.2,0c-0.5,0 -0.9,0 -1.4,-0.1c-0.4,0 -0.8,-0.1 -1.3,-0.1c-0.5,0 -0.9,-0.1 -1.3,-0.2c-0.4,-0.1 -0.8,-0.1 -1.2,-0.2c-0.5,-0.1 -1,-0.2 -1.4,-0.2c-0.4,-0.1 -0.8,-0.1 -1.1,-0.2c-0.6,-0.1 -1.1,-0.3 -1.7,-0.4c-0.4,-0.1 -0.7,-0.2 -1.1,-0.3c-0.2,-0.1 -0.4,-0.1 -0.6,-0.2c-0.6,-0.2 -1.1,-0.4 -1.6,-0.6c-0.2,-0.1 -0.3,-0.1 -0.5,-0.2c-0.5,-0.2 -1,-0.4 -1.4,-0.6c-0.2,-0.1 -0.5,-0.2 -0.7,-0.3c-0.7,-0.3 -1.3,-0.7 -2,-1c-3.7,-2.1 -6.1,-4.7 -7.2,-7.4c-0.5,-1.2 -0.8,-2.5 -0.8,-3.8l0,7.6c0,4 2.7,8.1 8,11.2c0.6,0.4 1.3,0.7 2,1c0.2,0.1 0.5,0.2 0.7,0.3c0.4,0.2 0.8,0.4 1.2,0.5c0.1,0 0.1,0.1 0.2,0.1c0.2,0.1 0.3,0.1 0.5,0.2c0.5,0.2 1.1,0.4 1.6,0.6c0.2,0.1 0.4,0.1 0.6,0.2c0.1,0 0.3,0.1 0.4,0.1c0.2,0.1 0.5,0.1 0.7,0.2c0.6,0.1 1.1,0.3 1.7,0.4c0.2,0 0.3,0.1 0.4,0.1c0.2,0 0.5,0.1 0.7,0.1c0.5,0.1 1,0.2 1.4,0.2c0.2,0 0.4,0.1 0.6,0.1c0.2,0 0.4,0 0.6,0.1c0.4,0.1 0.9,0.1 1.3,0.2c0.2,0 0.4,0.1 0.6,0.1c0.2,0 0.4,0 0.6,0c0.5,0 0.9,0.1 1.4,0.1c0.2,0 0.5,0 0.7,0c0.2,0 0.4,0 0.6,0c0.5,0 1,0 1.5,0c0.2,0 0.5,0 0.7,0c0.1,0 0.3,0 0.4,0c0.6,0 1.2,-0.1 1.8,-0.1c0.2,0 0.5,0 0.7,0c0.1,0 0.2,0 0.4,0c0.2,0 0.4,0 0.5,-0.1c0.6,-0.1 1.3,-0.2 1.9,-0.3c0.2,0 0.3,0 0.5,-0.1c0.1,0 0.1,0 0.2,0c0.3,-0.1 0.6,-0.1 0.9,-0.2c0.5,-0.1 1,-0.2 1.5,-0.3c0.4,-0.1 0.7,-0.2 1.1,-0.3c0.5,-0.1 0.9,-0.3 1.4,-0.4c0.1,0 0.2,-0.1 0.3,-0.1c0.6,-0.2 1.1,-0.4 1.6,-0.6c0.1,0 0.2,-0.1 0.2,-0.1c0.6,-0.2 1.2,-0.5 1.7,-0.7c0.2,-0.1 0.3,-0.2 0.5,-0.2c0.6,-0.3 1.2,-0.6 1.8,-1c0.1,-0.1 0.2,-0.1 0.3,-0.2c0.1,-0.1 0.2,-0.1 0.3,-0.2c0.2,-0.1 0.3,-0.2 0.5,-0.3c0.1,-0.1 0.3,-0.2 0.4,-0.3c0.2,-0.1 0.3,-0.2 0.5,-0.3c0.1,-0.1 0.3,-0.2 0.4,-0.3c0.1,-0.1 0.3,-0.2 0.4,-0.3c0.1,-0.1 0.3,-0.2 0.4,-0.3c0.1,-0.1 0.3,-0.2 0.4,-0.3c0.1,0 0.1,-0.1 0.2,-0.1c0,0 0.1,-0.1 0.1,-0.1c0.2,-0.2 0.4,-0.4 0.6,-0.6c0.1,-0.1 0.1,-0.1 0.2,-0.2c0.2,-0.3 0.5,-0.5 0.7,-0.8c0,0 0,0 0,0c0.1,-0.1 0.1,-0.1 0.1,-0.2c0.1,-0.2 0.3,-0.3 0.4,-0.5c0.1,-0.1 0.1,-0.2 0.2,-0.3c0.1,-0.2 0.2,-0.3 0.3,-0.5c0,0 0.1,-0.1 0.1,-0.1c0,-0.1 0.1,-0.1 0.1,-0.2c0.1,-0.1 0.1,-0.3 0.2,-0.4c0.1,-0.1 0.1,-0.2 0.2,-0.3c0.1,-0.1 0.1,-0.3 0.2,-0.4c0,-0.1 0.1,-0.1 0.1,-0.2c0,-0.1 0,-0.1 0.1,-0.2c0,-0.1 0.1,-0.3 0.1,-0.4c0,-0.1 0.1,-0.2 0.1,-0.4c0,-0.1 0.1,-0.3 0.1,-0.4c0,-0.1 0,-0.1 0.1,-0.2c0,0 0,-0.1 0,-0.1c0,-0.1 0,-0.3 0.1,-0.4c0,-0.1 0,-0.2 0,-0.4c0,-0.1 0,-0.3 0,-0.4c0,-0.1 0,-0.2 0,-0.2c0,-0.1 0,-0.2 0,-0.2l0,-7.6c0.2,-0.1 0.2,0 0.2,0.2z" fill="#EFC100"/>
       <g id="svg_202">
        <path id="svg_203" d="m416.2,824.8c10.6,6.1 10.6,16 0.1,22.2c-10.5,6.1 -27.7,6.1 -38.3,0c-10.6,-6.1 -10.7,-16 -0.1,-22.2c10.6,-6.2 27.7,-6.2 38.3,0z" fill="#FDD400"/>
       </g>
       <g id="svg_204">
        <path id="svg_205" d="m406,834.2c2.3,1.3 2.7,3.4 0.2,5.5l2.7,1.5l-2.6,1.5l-2.5,-1.4c-1.8,1 -4,1.7 -5.5,1.9l-2.3,-2.2c1.7,-0.3 3.7,-0.9 5.4,-1.8c1.5,-0.9 1.9,-1.8 0.9,-2.4c-1,-0.6 -2.5,-0.5 -5,0.3c-3.7,1.1 -6.9,1.4 -9.5,0c-2.3,-1.3 -2.5,-3.3 -0.3,-5.2l-2.5,-1.4l2.6,-1.5l2.3,1.3c1.8,-1 3.4,-1.4 4.6,-1.7l2.2,2.2c-1,0.2 -2.8,0.6 -4.6,1.7c-1.7,1 -1.5,1.7 -0.8,2.1c0.9,0.5 2.3,0.3 5.4,-0.5c4.3,-1.3 6.9,-1.2 9.3,0.1z" fill="#EC8659"/>
       </g>
      </g>
     </g>
     <g id="svg_206">
      <g id="svg_207">
       <path id="svg_208" d="m439.2,828.1c0,0.1 0,0.3 0,0.4c0,0.1 0,0.2 0,0.4c0,0.1 0,0.3 -0.1,0.4c0,0.1 0,0.2 -0.1,0.4c0,0.1 -0.1,0.3 -0.1,0.4c0,0.1 -0.1,0.2 -0.1,0.4c0,0.1 -0.1,0.3 -0.1,0.4c0,0.1 -0.1,0.2 -0.1,0.3c-0.1,0.1 -0.1,0.3 -0.2,0.4c-0.1,0.1 -0.1,0.2 -0.2,0.3c-0.1,0.1 -0.1,0.3 -0.2,0.4c-0.1,0.1 -0.1,0.2 -0.2,0.3c-0.1,0.2 -0.2,0.3 -0.3,0.5c-0.1,0.1 -0.1,0.2 -0.2,0.3c-0.1,0.2 -0.2,0.3 -0.4,0.5c-0.1,0.1 -0.1,0.2 -0.2,0.2c-0.2,0.3 -0.5,0.5 -0.7,0.8c-0.1,0.1 -0.1,0.1 -0.2,0.2c-0.2,0.2 -0.4,0.4 -0.6,0.6c-0.1,0.1 -0.2,0.2 -0.3,0.3c-0.1,0.1 -0.3,0.2 -0.4,0.3c-0.1,0.1 -0.2,0.2 -0.4,0.3c-0.1,0.1 -0.3,0.2 -0.4,0.3c-0.1,0.1 -0.3,0.2 -0.4,0.3c-0.1,0.1 -0.3,0.2 -0.5,0.3c-0.1,0.1 -0.3,0.2 -0.4,0.3c-0.2,0.1 -0.3,0.2 -0.5,0.3c-0.2,0.1 -0.4,0.3 -0.6,0.4c-0.6,0.3 -1.2,0.7 -1.8,1c-0.2,0.1 -0.3,0.2 -0.5,0.2c-0.6,0.3 -1.1,0.5 -1.7,0.7c-0.1,0 -0.2,0.1 -0.2,0.1c-0.6,0.2 -1.3,0.5 -1.9,0.7c-0.5,0.1 -0.9,0.3 -1.4,0.4c-0.4,0.1 -0.7,0.2 -1.1,0.3c-0.5,0.1 -1,0.2 -1.5,0.3c-0.4,0.1 -0.7,0.2 -1.1,0.2c-0.2,0 -0.3,0 -0.5,0.1c-0.6,0.1 -1.2,0.2 -1.9,0.3c-0.2,0 -0.4,0 -0.6,0.1c-0.4,0 -0.7,0.1 -1.1,0.1c-0.6,0.1 -1.2,0.1 -1.8,0.1c-0.4,0 -0.8,0 -1.2,0c-0.5,0 -1,0 -1.5,0c-0.4,0 -0.8,0 -1.2,0c-0.5,0 -0.9,0 -1.4,-0.1c-0.4,0 -0.8,-0.1 -1.3,-0.1c-0.5,0 -0.9,-0.1 -1.3,-0.2c-0.4,-0.1 -0.8,-0.1 -1.2,-0.2c-0.5,-0.1 -1,-0.2 -1.4,-0.2c-0.4,-0.1 -0.8,-0.1 -1.1,-0.2c-0.6,-0.1 -1.1,-0.3 -1.7,-0.4c-0.4,-0.1 -0.7,-0.2 -1.1,-0.3c-0.2,-0.1 -0.4,-0.1 -0.6,-0.2c-0.6,-0.2 -1.1,-0.4 -1.6,-0.6c-0.2,-0.1 -0.3,-0.1 -0.5,-0.2c-0.5,-0.2 -1,-0.4 -1.4,-0.6c-0.2,-0.1 -0.5,-0.2 -0.7,-0.3c-0.7,-0.3 -1.3,-0.7 -2,-1c-3.7,-2.1 -6.1,-4.7 -7.2,-7.4c-0.5,-1.2 -0.8,-2.5 -0.8,-3.8l0,7.6c0,4 2.7,8.1 8,11.2c0.6,0.4 1.3,0.7 2,1c0.2,0.1 0.5,0.2 0.7,0.3c0.4,0.2 0.8,0.4 1.2,0.5c0.1,0 0.1,0.1 0.2,0.1c0.2,0.1 0.3,0.1 0.5,0.2c0.5,0.2 1.1,0.4 1.6,0.6c0.2,0.1 0.4,0.1 0.6,0.2c0.1,0 0.3,0.1 0.4,0.1c0.2,0.1 0.5,0.1 0.7,0.2c0.6,0.1 1.1,0.3 1.7,0.4c0.2,0 0.3,0.1 0.4,0.1c0.2,0 0.5,0.1 0.7,0.1c0.5,0.1 1,0.2 1.4,0.2c0.2,0 0.4,0.1 0.6,0.1c0.2,0 0.4,0 0.6,0.1c0.4,0.1 0.9,0.1 1.3,0.2c0.2,0 0.4,0.1 0.6,0.1c0.2,0 0.4,0 0.6,0c0.5,0 0.9,0.1 1.4,0.1c0.2,0 0.5,0 0.7,0c0.2,0 0.4,0 0.6,0c0.5,0 1,0 1.5,0c0.2,0 0.5,0 0.7,0c0.1,0 0.3,0 0.4,0c0.6,0 1.2,-0.1 1.8,-0.1c0.2,0 0.5,0 0.7,0c0.1,0 0.2,0 0.4,0c0.2,0 0.4,0 0.5,-0.1c0.6,-0.1 1.3,-0.2 1.9,-0.3c0.2,0 0.3,0 0.5,-0.1c0.1,0 0.1,0 0.2,0c0.3,-0.1 0.6,-0.1 0.9,-0.2c0.5,-0.1 1,-0.2 1.5,-0.3c0.4,-0.1 0.7,-0.2 1.1,-0.3c0.5,-0.1 0.9,-0.3 1.4,-0.4c0.1,0 0.2,-0.1 0.3,-0.1c0.6,-0.2 1.1,-0.4 1.6,-0.6c0.1,0 0.2,-0.1 0.2,-0.1c0.6,-0.2 1.2,-0.5 1.7,-0.7c0.2,-0.1 0.3,-0.2 0.5,-0.2c0.6,-0.3 1.2,-0.6 1.8,-1c0.1,-0.1 0.2,-0.1 0.3,-0.2c0.1,-0.1 0.2,-0.1 0.3,-0.2c0.2,-0.1 0.3,-0.2 0.5,-0.3c0.1,-0.1 0.3,-0.2 0.4,-0.3c0.2,-0.1 0.3,-0.2 0.5,-0.3c0.1,-0.1 0.3,-0.2 0.4,-0.3c0.1,-0.1 0.3,-0.2 0.4,-0.3c0.1,-0.1 0.3,-0.2 0.4,-0.3c0.1,-0.1 0.3,-0.2 0.4,-0.3c0.1,0 0.1,-0.1 0.2,-0.1c0,0 0.1,-0.1 0.1,-0.1c0.2,-0.2 0.4,-0.4 0.6,-0.6c0.1,-0.1 0.1,-0.1 0.2,-0.2c0.2,-0.3 0.5,-0.5 0.7,-0.8c0,0 0,0 0,0c0.1,-0.1 0.1,-0.1 0.1,-0.2c0.1,-0.2 0.3,-0.3 0.4,-0.5c0.1,-0.1 0.1,-0.2 0.2,-0.3c0.1,-0.2 0.2,-0.3 0.3,-0.5c0,0 0.1,-0.1 0.1,-0.1c0,-0.1 0.1,-0.1 0.1,-0.2c0.1,-0.1 0.1,-0.3 0.2,-0.4c0.1,-0.1 0.1,-0.2 0.2,-0.3c0.1,-0.1 0.1,-0.3 0.2,-0.4c0,-0.1 0.1,-0.1 0.1,-0.2c0,-0.1 0,-0.1 0.1,-0.2c0,-0.1 0.1,-0.3 0.1,-0.4c0,-0.1 0.1,-0.2 0.1,-0.4c0,-0.1 0.1,-0.3 0.1,-0.4c0,-0.1 0,-0.1 0.1,-0.2c0,0 0,-0.1 0,-0.1c0,-0.1 0,-0.3 0.1,-0.4c0,-0.1 0,-0.2 0,-0.4c0,-0.1 0,-0.3 0,-0.4c0,-0.1 0,-0.2 0,-0.2c0,-0.1 0,-0.2 0,-0.2l0,-7.6c0.2,-0.1 0.2,0 0.2,0.2z" fill="#EFC100"/>
       <g id="svg_209">
        <path id="svg_210" d="m431.3,816.5c10.6,6.1 10.6,16 0.1,22.2c-10.5,6.1 -27.7,6.1 -38.3,0c-10.6,-6.1 -10.7,-16 -0.1,-22.2c10.5,-6.1 27.7,-6.1 38.3,0z" fill="#FDD400"/>
       </g>
       <g id="svg_211">
        <path id="svg_212" d="m421,825.9c2.3,1.3 2.7,3.4 0.2,5.5l2.7,1.5l-2.6,1.5l-2.5,-1.4c-1.8,1 -4,1.7 -5.5,1.9l-2.3,-2.2c1.7,-0.3 3.7,-0.9 5.4,-1.8c1.5,-0.9 1.9,-1.8 0.9,-2.4c-1,-0.6 -2.5,-0.5 -5,0.3c-3.7,1.1 -6.9,1.4 -9.5,0c-2.3,-1.3 -2.5,-3.3 -0.3,-5.2l-2.5,-1.4l2.6,-1.5l2.3,1.3c1.8,-1 3.4,-1.4 4.6,-1.7l2.2,2.2c-1,0.2 -2.8,0.6 -4.6,1.7c-1.7,1 -1.5,1.7 -0.8,2.1c0.9,0.5 2.3,0.3 5.4,-0.5c4.3,-1.3 7,-1.2 9.3,0.1z" fill="#EC8659"/>
       </g>
      </g>
     </g>
     <g id="svg_213">
      <g id="svg_214">
       <path id="svg_215" d="m431.6,817.6c0,0.1 0,0.3 0,0.4c0,0.1 0,0.2 0,0.4c0,0.1 0,0.3 -0.1,0.4c0,0.1 0,0.2 -0.1,0.4c0,0.1 -0.1,0.3 -0.1,0.4c0,0.1 -0.1,0.2 -0.1,0.4c0,0.1 -0.1,0.3 -0.1,0.4c0,0.1 -0.1,0.2 -0.1,0.3c-0.1,0.1 -0.1,0.3 -0.2,0.4c-0.1,0.1 -0.1,0.2 -0.2,0.3c-0.1,0.1 -0.1,0.3 -0.2,0.4c-0.1,0.1 -0.1,0.2 -0.2,0.3c-0.1,0.2 -0.2,0.3 -0.3,0.5c-0.1,0.1 -0.1,0.2 -0.2,0.3c-0.1,0.2 -0.2,0.3 -0.4,0.5c-0.1,0.1 -0.1,0.2 -0.2,0.2c-0.2,0.3 -0.5,0.5 -0.7,0.8c-0.1,0.1 -0.1,0.1 -0.2,0.2c-0.2,0.2 -0.4,0.4 -0.6,0.6c-0.1,0.1 -0.2,0.2 -0.3,0.3c-0.1,0.1 -0.3,0.2 -0.4,0.3c-0.1,0.1 -0.2,0.2 -0.4,0.3c-0.1,0.1 -0.3,0.2 -0.4,0.3c-0.1,0.1 -0.3,0.2 -0.4,0.3c-0.1,0.1 -0.3,0.2 -0.5,0.3c-0.1,0.1 -0.3,0.2 -0.4,0.3c-0.2,0.1 -0.3,0.2 -0.5,0.3c-0.2,0.1 -0.4,0.3 -0.6,0.4c-0.6,0.3 -1.2,0.7 -1.8,1c-0.2,0.1 -0.3,0.2 -0.5,0.2c-0.6,0.3 -1.1,0.5 -1.7,0.7c-0.1,0 -0.2,0.1 -0.2,0.1c-0.6,0.2 -1.3,0.5 -1.9,0.7c-0.5,0.1 -0.9,0.3 -1.4,0.4c-0.4,0.1 -0.7,0.2 -1.1,0.3c-0.5,0.1 -1,0.2 -1.5,0.3c-0.4,0.1 -0.7,0.2 -1.1,0.2c-0.2,0 -0.3,0 -0.5,0.1c-0.6,0.1 -1.2,0.2 -1.9,0.3c-0.2,0 -0.4,0 -0.6,0.1c-0.4,0 -0.7,0.1 -1.1,0.1c-0.6,0.1 -1.2,0.1 -1.8,0.1c-0.4,0 -0.8,0 -1.2,0c-0.5,0 -1,0 -1.5,0c-0.4,0 -0.8,0 -1.2,0c-0.5,0 -0.9,0 -1.4,-0.1c-0.4,0 -0.8,-0.1 -1.3,-0.1c-0.5,0 -0.9,-0.1 -1.3,-0.2c-0.4,-0.1 -0.8,-0.1 -1.2,-0.2c-0.5,-0.1 -1,-0.2 -1.4,-0.2c-0.4,-0.1 -0.8,-0.1 -1.1,-0.2c-0.6,-0.1 -1.1,-0.3 -1.7,-0.4c-0.4,-0.1 -0.7,-0.2 -1.1,-0.3c-0.2,-0.1 -0.4,-0.1 -0.6,-0.2c-0.6,-0.2 -1.1,-0.4 -1.6,-0.6c-0.2,-0.1 -0.3,-0.1 -0.5,-0.2c-0.5,-0.2 -1,-0.4 -1.4,-0.6c-0.2,-0.1 -0.5,-0.2 -0.7,-0.3c-0.7,-0.3 -1.3,-0.7 -2,-1c-3.7,-2.1 -6.1,-4.7 -7.2,-7.4c-0.5,-1.2 -0.8,-2.5 -0.8,-3.8l0,7.6c0,4 2.7,8.1 8,11.2c0.6,0.4 1.3,0.7 2,1c0.2,0.1 0.5,0.2 0.7,0.3c0.4,0.2 0.8,0.4 1.2,0.5c0.1,0 0.1,0.1 0.2,0.1c0.2,0.1 0.3,0.1 0.5,0.2c0.5,0.2 1.1,0.4 1.6,0.6c0.2,0.1 0.4,0.1 0.6,0.2c0.1,0 0.3,0.1 0.4,0.1c0.2,0.1 0.5,0.1 0.7,0.2c0.6,0.1 1.1,0.3 1.7,0.4c0.2,0 0.3,0.1 0.4,0.1c0.2,0 0.5,0.1 0.7,0.1c0.5,0.1 1,0.2 1.4,0.2c0.2,0 0.4,0.1 0.6,0.1c0.2,0 0.4,0 0.6,0.1c0.4,0.1 0.9,0.1 1.3,0.2c0.2,0 0.4,0.1 0.6,0.1c0.2,0 0.4,0 0.6,0c0.5,0 0.9,0.1 1.4,0.1c0.2,0 0.5,0 0.7,0c0.2,0 0.4,0 0.6,0c0.5,0 1,0 1.5,0c0.2,0 0.5,0 0.7,0c0.1,0 0.3,0 0.4,0c0.6,0 1.2,-0.1 1.8,-0.1c0.2,0 0.5,0 0.7,0c0.1,0 0.2,0 0.4,0c0.2,0 0.4,0 0.5,-0.1c0.6,-0.1 1.3,-0.2 1.9,-0.3c0.2,0 0.3,0 0.5,-0.1c0.1,0 0.1,0 0.2,0c0.3,-0.1 0.6,-0.1 0.9,-0.2c0.5,-0.1 1,-0.2 1.5,-0.3c0.4,-0.1 0.7,-0.2 1.1,-0.3c0.5,-0.1 0.9,-0.3 1.4,-0.4c0.1,0 0.2,-0.1 0.3,-0.1c0.6,-0.2 1.1,-0.4 1.6,-0.6c0.1,0 0.2,-0.1 0.2,-0.1c0.6,-0.2 1.2,-0.5 1.7,-0.7c0.2,-0.1 0.3,-0.2 0.5,-0.2c0.6,-0.3 1.2,-0.6 1.8,-1c0.1,-0.1 0.2,-0.1 0.3,-0.2c0.1,-0.1 0.2,-0.1 0.3,-0.2c0.2,-0.1 0.3,-0.2 0.5,-0.3c0.1,-0.1 0.3,-0.2 0.4,-0.3c0.2,-0.1 0.3,-0.2 0.5,-0.3c0.1,-0.1 0.3,-0.2 0.4,-0.3c0.1,-0.1 0.3,-0.2 0.4,-0.3c0.1,-0.1 0.3,-0.2 0.4,-0.3c0.1,-0.1 0.3,-0.2 0.4,-0.3c0.1,0 0.1,-0.1 0.2,-0.1c0,0 0.1,-0.1 0.1,-0.1c0.2,-0.2 0.4,-0.4 0.6,-0.6c0.1,-0.1 0.1,-0.1 0.2,-0.2c0.2,-0.3 0.5,-0.5 0.7,-0.8c0,0 0,0 0,0c0.1,-0.1 0.1,-0.1 0.1,-0.2c0.1,-0.2 0.3,-0.3 0.4,-0.5c0.1,-0.1 0.1,-0.2 0.2,-0.3c0.1,-0.2 0.2,-0.3 0.3,-0.5c0,0 0.1,-0.1 0.1,-0.1c0,-0.1 0.1,-0.1 0.1,-0.2c0.1,-0.1 0.1,-0.3 0.2,-0.4c0.1,-0.1 0.1,-0.2 0.2,-0.3c0.1,-0.1 0.1,-0.3 0.2,-0.4c0,-0.1 0.1,-0.1 0.1,-0.2c0,-0.1 0,-0.1 0.1,-0.2c0,-0.1 0.1,-0.3 0.1,-0.4c0,-0.1 0.1,-0.2 0.1,-0.4c0,-0.1 0.1,-0.3 0.1,-0.4c0,-0.1 0,-0.1 0.1,-0.2c0,0 0,-0.1 0,-0.1c0,-0.1 0,-0.3 0.1,-0.4c0,-0.1 0,-0.2 0,-0.4c0,-0.1 0,-0.3 0,-0.4c0,-0.1 0,-0.2 0,-0.2c0,-0.1 0,-0.2 0,-0.2l0,-7.6c0.2,-0.1 0.2,0 0.2,0.2z" fill="#EFC100"/>
       <g id="svg_216">
        <path id="svg_217" d="m423.6,805.9c10.6,6.1 10.6,16 0.1,22.2c-10.5,6.1 -27.7,6.1 -38.3,0c-10.6,-6.1 -10.7,-16 -0.1,-22.2c10.6,-6.1 27.7,-6.1 38.3,0z" fill="#FDD400"/>
       </g>
       <g id="svg_218">
        <path id="svg_219" d="m413.4,815.4c2.3,1.3 2.7,3.4 0.2,5.5l2.7,1.5l-2.6,1.5l-2.5,-1.4c-1.8,1 -4,1.7 -5.5,1.9l-2.3,-2.2c1.7,-0.3 3.7,-0.9 5.4,-1.8c1.5,-0.9 1.9,-1.8 0.9,-2.4c-1,-0.6 -2.5,-0.5 -5,0.3c-3.7,1.1 -6.9,1.4 -9.5,0c-2.3,-1.3 -2.5,-3.3 -0.3,-5.2l-2.5,-1.4l2.6,-1.5l2.3,1.3c1.8,-1 3.4,-1.4 4.6,-1.7l2.2,2.2c-1,0.2 -2.8,0.6 -4.6,1.7c-1.7,1 -1.5,1.7 -0.8,2.1c0.9,0.5 2.3,0.3 5.4,-0.5c4.2,-1.4 6.9,-1.3 9.3,0.1z" fill="#EC8659"/>
       </g>
      </g>
     </g>
     <g id="svg_220">
      <g id="svg_221">
       <path id="svg_222" d="m500.9,880.9c0,0.1 0,0.3 0,0.4c0,0.1 0,0.2 0,0.4c0,0.1 0,0.3 -0.1,0.4c0,0.1 0,0.2 -0.1,0.4c0,0.1 -0.1,0.3 -0.1,0.4c0,0.1 -0.1,0.2 -0.1,0.4c0,0.1 -0.1,0.3 -0.1,0.4c0,0.1 -0.1,0.2 -0.1,0.3c-0.1,0.1 -0.1,0.3 -0.2,0.4c-0.1,0.1 -0.1,0.2 -0.2,0.3c-0.1,0.1 -0.1,0.3 -0.2,0.4c-0.1,0.1 -0.1,0.2 -0.2,0.3c-0.1,0.2 -0.2,0.3 -0.3,0.5c-0.1,0.1 -0.1,0.2 -0.2,0.3c-0.1,0.2 -0.2,0.3 -0.4,0.5c-0.1,0.1 -0.1,0.2 -0.2,0.2c-0.2,0.3 -0.5,0.5 -0.7,0.8c-0.1,0.1 -0.1,0.1 -0.2,0.2c-0.2,0.2 -0.4,0.4 -0.6,0.6c-0.1,0.1 -0.2,0.2 -0.3,0.3c-0.1,0.1 -0.3,0.2 -0.4,0.3c-0.1,0.1 -0.2,0.2 -0.4,0.3c-0.1,0.1 -0.3,0.2 -0.4,0.3c-0.1,0.1 -0.3,0.2 -0.4,0.3c-0.1,0.1 -0.3,0.2 -0.5,0.3c-0.1,0.1 -0.3,0.2 -0.4,0.3c-0.2,0.1 -0.3,0.2 -0.5,0.3c-0.2,0.1 -0.4,0.3 -0.6,0.4c-0.6,0.3 -1.2,0.7 -1.8,1c-0.2,0.1 -0.3,0.2 -0.5,0.2c-0.6,0.3 -1.1,0.5 -1.7,0.7c-0.1,0 -0.2,0.1 -0.2,0.1c-0.6,0.2 -1.3,0.5 -1.9,0.7c-0.5,0.1 -0.9,0.3 -1.4,0.4c-0.4,0.1 -0.7,0.2 -1.1,0.3c-0.5,0.1 -1,0.2 -1.5,0.3c-0.4,0.1 -0.7,0.2 -1.1,0.2c-0.2,0 -0.3,0 -0.5,0.1c-0.6,0.1 -1.2,0.2 -1.9,0.3c-0.2,0 -0.4,0 -0.6,0.1c-0.4,0 -0.7,0.1 -1.1,0.1c-0.6,0.1 -1.2,0.1 -1.8,0.1c-0.4,0 -0.8,0 -1.2,0c-0.5,0 -1,0 -1.5,0c-0.4,0 -0.8,0 -1.2,0c-0.5,0 -0.9,0 -1.4,-0.1c-0.4,0 -0.8,-0.1 -1.3,-0.1c-0.5,0 -0.9,-0.1 -1.3,-0.2c-0.4,-0.1 -0.8,-0.1 -1.2,-0.2c-0.5,-0.1 -1,-0.2 -1.4,-0.2c-0.4,-0.1 -0.8,-0.1 -1.1,-0.2c-0.6,-0.1 -1.1,-0.3 -1.7,-0.4c-0.4,-0.1 -0.7,-0.2 -1.1,-0.3c-0.2,-0.1 -0.4,-0.1 -0.6,-0.2c-0.6,-0.2 -1.1,-0.4 -1.6,-0.6c-0.2,-0.1 -0.3,-0.1 -0.5,-0.2c-0.5,-0.2 -1,-0.4 -1.4,-0.6c-0.2,-0.1 -0.5,-0.2 -0.7,-0.3c-0.7,-0.3 -1.3,-0.7 -2,-1c-3.7,-2.1 -6.1,-4.7 -7.2,-7.4c-0.5,-1.2 -0.8,-2.5 -0.8,-3.8l0,7.6c0,4 2.7,8.1 8,11.2c0.6,0.4 1.3,0.7 2,1c0.2,0.1 0.5,0.2 0.7,0.3c0.4,0.2 0.8,0.4 1.2,0.5c0.1,0 0.1,0.1 0.2,0.1c0.2,0.1 0.3,0.1 0.5,0.2c0.5,0.2 1.1,0.4 1.6,0.6c0.2,0.1 0.4,0.1 0.6,0.2c0.1,0 0.3,0.1 0.4,0.1c0.2,0.1 0.5,0.1 0.7,0.2c0.6,0.1 1.1,0.3 1.7,0.4c0.2,0 0.3,0.1 0.4,0.1c0.2,0 0.5,0.1 0.7,0.1c0.5,0.1 1,0.2 1.4,0.2c0.2,0 0.4,0.1 0.6,0.1c0.2,0 0.4,0 0.6,0.1c0.4,0.1 0.9,0.1 1.3,0.2c0.2,0 0.4,0.1 0.6,0.1c0.2,0 0.4,0 0.6,0c0.5,0 0.9,0.1 1.4,0.1c0.2,0 0.5,0 0.7,0c0.2,0 0.4,0 0.6,0c0.5,0 1,0 1.5,0c0.2,0 0.5,0 0.7,0c0.1,0 0.3,0 0.4,0c0.6,0 1.2,-0.1 1.8,-0.1c0.2,0 0.5,0 0.7,0c0.1,0 0.2,0 0.4,0c0.2,0 0.4,0 0.5,-0.1c0.6,-0.1 1.3,-0.2 1.9,-0.3c0.2,0 0.3,0 0.5,-0.1c0.1,0 0.1,0 0.2,0c0.3,-0.1 0.6,-0.1 0.9,-0.2c0.5,-0.1 1,-0.2 1.5,-0.3c0.4,-0.1 0.7,-0.2 1.1,-0.3c0.5,-0.1 0.9,-0.3 1.4,-0.4c0.1,0 0.2,-0.1 0.3,-0.1c0.6,-0.2 1.1,-0.4 1.6,-0.6c0.1,0 0.2,-0.1 0.2,-0.1c0.6,-0.2 1.2,-0.5 1.7,-0.7c0.2,-0.1 0.3,-0.2 0.5,-0.2c0.6,-0.3 1.2,-0.6 1.8,-1c0.1,-0.1 0.2,-0.1 0.3,-0.2c0.1,-0.1 0.2,-0.1 0.3,-0.2c0.2,-0.1 0.3,-0.2 0.5,-0.3c0.1,-0.1 0.3,-0.2 0.4,-0.3c0.2,-0.1 0.3,-0.2 0.5,-0.3c0.1,-0.1 0.3,-0.2 0.4,-0.3c0.1,-0.1 0.3,-0.2 0.4,-0.3c0.1,-0.1 0.3,-0.2 0.4,-0.3c0.1,-0.1 0.3,-0.2 0.4,-0.3c0.1,0 0.1,-0.1 0.2,-0.1c0,0 0.1,-0.1 0.1,-0.1c0.2,-0.2 0.4,-0.4 0.6,-0.6c0.1,-0.1 0.1,-0.1 0.2,-0.2c0.2,-0.3 0.5,-0.5 0.7,-0.8c0,0 0,0 0,0c0.1,-0.1 0.1,-0.1 0.1,-0.2c0.1,-0.2 0.3,-0.3 0.4,-0.5c0.1,-0.1 0.1,-0.2 0.2,-0.3c0.1,-0.2 0.2,-0.3 0.3,-0.5c0,0 0.1,-0.1 0.1,-0.1c0,-0.1 0.1,-0.1 0.1,-0.2c0.1,-0.1 0.1,-0.3 0.2,-0.4c0.1,-0.1 0.1,-0.2 0.2,-0.3c0.1,-0.1 0.1,-0.3 0.2,-0.4c0,-0.1 0.1,-0.1 0.1,-0.2c0,-0.1 0,-0.1 0.1,-0.2c0,-0.1 0.1,-0.3 0.1,-0.4c0,-0.1 0.1,-0.2 0.1,-0.4c0,-0.1 0.1,-0.3 0.1,-0.4c0,-0.1 0,-0.1 0.1,-0.2c0,0 0,-0.1 0,-0.1c0,-0.1 0,-0.3 0.1,-0.4c0,-0.1 0,-0.2 0,-0.4c0,-0.1 0,-0.3 0,-0.4c0,-0.1 0,-0.2 0,-0.2c0,-0.1 0,-0.2 0,-0.2l0,-7.6c0.2,-0.1 0.2,0 0.2,0.2z" fill="#EFC100"/>
       <g id="svg_223">
        <path id="svg_224" d="m492.9,869.3c10.6,6.1 10.6,16 0.1,22.2s-27.7,6.1 -38.3,0c-10.6,-6.1 -10.7,-16 -0.1,-22.2c10.6,-6.1 27.7,-6.1 38.3,0z" fill="#FDD400"/>
       </g>
       <g id="svg_225">
        <path id="svg_226" d="m482.7,878.7c2.3,1.3 2.7,3.4 0.2,5.5l2.7,1.5l-2.6,1.5l-2.5,-1.4c-1.8,1 -4,1.7 -5.5,1.9l-2.3,-2.2c1.7,-0.3 3.7,-0.9 5.4,-1.8c1.5,-0.9 1.9,-1.8 0.9,-2.4c-1,-0.6 -2.5,-0.5 -5,0.3c-3.7,1.1 -6.9,1.4 -9.5,0c-2.3,-1.3 -2.5,-3.3 -0.3,-5.2l-2.5,-1.4l2.6,-1.5l2.3,1.3c1.8,-1 3.4,-1.4 4.6,-1.7l2.2,2.2c-1,0.2 -2.8,0.6 -4.6,1.7c-1.7,1 -1.5,1.7 -0.8,2.1c0.9,0.5 2.3,0.3 5.4,-0.5c4.2,-1.3 6.9,-1.2 9.3,0.1z" fill="#EC8659"/>
       </g>
      </g>
     </g>
     <g id="svg_227">
      <g id="svg_228">
       <path id="svg_229" d="m458.6,912.7c0,0.1 0,0.3 0,0.4c0,0.1 0,0.2 0,0.4c0,0.1 0,0.3 -0.1,0.4c0,0.1 0,0.2 -0.1,0.4c0,0.1 -0.1,0.3 -0.1,0.4c0,0.1 -0.1,0.2 -0.1,0.4c0,0.1 -0.1,0.3 -0.1,0.4c0,0.1 -0.1,0.2 -0.1,0.3c-0.1,0.1 -0.1,0.3 -0.2,0.4c-0.1,0.1 -0.1,0.2 -0.2,0.3c-0.1,0.1 -0.1,0.3 -0.2,0.4c-0.1,0.1 -0.1,0.2 -0.2,0.3c-0.1,0.2 -0.2,0.3 -0.3,0.5c-0.1,0.1 -0.1,0.2 -0.2,0.3c-0.1,0.2 -0.2,0.3 -0.4,0.5c-0.1,0.1 -0.1,0.2 -0.2,0.2c-0.2,0.3 -0.5,0.5 -0.7,0.8c-0.1,0.1 -0.1,0.1 -0.2,0.2c-0.2,0.2 -0.4,0.4 -0.6,0.6c-0.1,0.1 -0.2,0.2 -0.3,0.3c-0.1,0.1 -0.3,0.2 -0.4,0.3c-0.1,0.1 -0.2,0.2 -0.4,0.3c-0.1,0.1 -0.3,0.2 -0.4,0.3c-0.1,0.1 -0.3,0.2 -0.4,0.3c-0.1,0.1 -0.3,0.2 -0.5,0.3c-0.1,0.1 -0.3,0.2 -0.4,0.3c-0.2,0.1 -0.3,0.2 -0.5,0.3c-0.2,0.1 -0.4,0.3 -0.6,0.4c-0.6,0.3 -1.2,0.7 -1.8,1c-0.2,0.1 -0.3,0.2 -0.5,0.2c-0.6,0.3 -1.1,0.5 -1.7,0.7c-0.1,0 -0.2,0.1 -0.2,0.1c-0.6,0.2 -1.3,0.5 -1.9,0.7c-0.5,0.1 -0.9,0.3 -1.4,0.4c-0.4,0.1 -0.7,0.2 -1.1,0.3c-0.5,0.1 -1,0.2 -1.5,0.3c-0.4,0.1 -0.7,0.2 -1.1,0.2c-0.2,0 -0.3,0 -0.5,0.1c-0.6,0.1 -1.2,0.2 -1.9,0.3c-0.2,0 -0.4,0 -0.6,0.1c-0.4,0 -0.7,0.1 -1.1,0.1c-0.6,0.1 -1.2,0.1 -1.8,0.1c-0.4,0 -0.8,0 -1.2,0c-0.5,0 -1,0 -1.5,0c-0.4,0 -0.8,0 -1.2,0c-0.5,0 -0.9,0 -1.4,-0.1c-0.4,0 -0.8,-0.1 -1.3,-0.1c-0.5,0 -0.9,-0.1 -1.3,-0.2c-0.4,-0.1 -0.8,-0.1 -1.2,-0.2c-0.5,-0.1 -1,-0.2 -1.4,-0.2c-0.4,-0.1 -0.8,-0.1 -1.1,-0.2c-0.6,-0.1 -1.1,-0.3 -1.7,-0.4c-0.4,-0.1 -0.7,-0.2 -1.1,-0.3c-0.2,-0.1 -0.4,-0.1 -0.6,-0.2c-0.6,-0.2 -1.1,-0.4 -1.6,-0.6c-0.2,-0.1 -0.3,-0.1 -0.5,-0.2c-0.5,-0.2 -1,-0.4 -1.4,-0.6c-0.2,-0.1 -0.5,-0.2 -0.7,-0.3c-0.7,-0.3 -1.3,-0.7 -2,-1c-3.7,-2.1 -6.1,-4.7 -7.2,-7.4c-0.5,-1.2 -0.8,-2.5 -0.8,-3.8l0,7.6c0,4 2.7,8.1 8,11.2c0.6,0.4 1.3,0.7 2,1c0.2,0.1 0.5,0.2 0.7,0.3c0.4,0.2 0.8,0.4 1.2,0.5c0.1,0 0.1,0.1 0.2,0.1c0.2,0.1 0.3,0.1 0.5,0.2c0.5,0.2 1.1,0.4 1.6,0.6c0.2,0.1 0.4,0.1 0.6,0.2c0.1,0 0.3,0.1 0.4,0.1c0.2,0.1 0.5,0.1 0.7,0.2c0.6,0.1 1.1,0.3 1.7,0.4c0.2,0 0.3,0.1 0.4,0.1c0.2,0 0.5,0.1 0.7,0.1c0.5,0.1 1,0.2 1.4,0.2c0.2,0 0.4,0.1 0.6,0.1c0.2,0 0.4,0 0.6,0.1c0.4,0.1 0.9,0.1 1.3,0.2c0.2,0 0.4,0.1 0.6,0.1c0.2,0 0.4,0 0.6,0c0.5,0 0.9,0.1 1.4,0.1c0.2,0 0.5,0 0.7,0c0.2,0 0.4,0 0.6,0c0.5,0 1,0 1.5,0c0.2,0 0.5,0 0.7,0c0.1,0 0.3,0 0.4,0c0.6,0 1.2,-0.1 1.8,-0.1c0.2,0 0.5,0 0.7,0c0.1,0 0.2,0 0.4,0c0.2,0 0.4,0 0.5,-0.1c0.6,-0.1 1.3,-0.2 1.9,-0.3c0.2,0 0.3,0 0.5,-0.1c0.1,0 0.1,0 0.2,0c0.3,-0.1 0.6,-0.1 0.9,-0.2c0.5,-0.1 1,-0.2 1.5,-0.3c0.4,-0.1 0.7,-0.2 1.1,-0.3c0.5,-0.1 0.9,-0.3 1.4,-0.4c0.1,0 0.2,-0.1 0.3,-0.1c0.6,-0.2 1.1,-0.4 1.6,-0.6c0.1,0 0.2,-0.1 0.2,-0.1c0.6,-0.2 1.2,-0.5 1.7,-0.7c0.2,-0.1 0.3,-0.2 0.5,-0.2c0.6,-0.3 1.2,-0.6 1.8,-1c0.1,-0.1 0.2,-0.1 0.3,-0.2c0.1,-0.1 0.2,-0.1 0.3,-0.2c0.2,-0.1 0.3,-0.2 0.5,-0.3c0.1,-0.1 0.3,-0.2 0.4,-0.3c0.2,-0.1 0.3,-0.2 0.5,-0.3c0.1,-0.1 0.3,-0.2 0.4,-0.3c0.1,-0.1 0.3,-0.2 0.4,-0.3c0.1,-0.1 0.3,-0.2 0.4,-0.3c0.1,-0.1 0.3,-0.2 0.4,-0.3c0.1,0 0.1,-0.1 0.2,-0.1c0,0 0.1,-0.1 0.1,-0.1c0.2,-0.2 0.4,-0.4 0.6,-0.6c0.1,-0.1 0.1,-0.1 0.2,-0.2c0.2,-0.3 0.5,-0.5 0.7,-0.8c0,0 0,0 0,0c0.1,-0.1 0.1,-0.1 0.1,-0.2c0.1,-0.2 0.3,-0.3 0.4,-0.5c0.1,-0.1 0.1,-0.2 0.2,-0.3c0.1,-0.2 0.2,-0.3 0.3,-0.5c0,0 0.1,-0.1 0.1,-0.1c0,-0.1 0.1,-0.1 0.1,-0.2c0.1,-0.1 0.1,-0.3 0.2,-0.4c0.1,-0.1 0.1,-0.2 0.2,-0.3c0.1,-0.1 0.1,-0.3 0.2,-0.4c0,-0.1 0.1,-0.1 0.1,-0.2c0,-0.1 0,-0.1 0.1,-0.2c0,-0.1 0.1,-0.3 0.1,-0.4c0,-0.1 0.1,-0.2 0.1,-0.4c0,-0.1 0.1,-0.3 0.1,-0.4c0,-0.1 0,-0.1 0.1,-0.2c0,0 0,-0.1 0,-0.1c0,-0.1 0,-0.3 0.1,-0.4c0,-0.1 0,-0.2 0,-0.4c0,-0.1 0,-0.3 0,-0.4c0,-0.1 0,-0.2 0,-0.2c0,-0.1 0,-0.2 0,-0.2l0,-7.6c0.2,-0.1 0.2,0 0.2,0.2z" fill="#EFC100"/>
       <g id="svg_230">
        <path id="svg_231" d="m450.6,901c10.6,6.1 10.6,16 0.1,22.2s-27.7,6.1 -38.3,0c-10.6,-6.1 -10.7,-16 -0.1,-22.2c10.6,-6.1 27.7,-6.1 38.3,0z" fill="#FDD400"/>
       </g>
       <g id="svg_232">
        <path id="svg_233" d="m440.4,910.5c2.3,1.3 2.7,3.4 0.2,5.5l2.7,1.5l-2.6,1.5l-2.5,-1.4c-1.8,1 -4,1.7 -5.5,1.9l-2.3,-2.2c1.7,-0.3 3.7,-0.9 5.4,-1.8c1.5,-0.9 1.9,-1.8 0.9,-2.4c-1,-0.6 -2.5,-0.5 -5,0.3c-3.7,1.1 -6.9,1.4 -9.5,0c-2.3,-1.3 -2.5,-3.3 -0.3,-5.2l-2.5,-1.4l2.6,-1.5l2.3,1.3c1.8,-1 3.4,-1.4 4.6,-1.7l2.2,2.2c-1,0.2 -2.8,0.6 -4.6,1.7c-1.7,1 -1.5,1.7 -0.8,2.1c0.9,0.5 2.3,0.3 5.4,-0.5c4.3,-1.4 7,-1.3 9.3,0.1z" fill="#EC8659"/>
       </g>
      </g>
     </g>
     <g id="svg_234">
      <g id="svg_235">
       <path id="svg_236" d="m507.4,873.1c0,0.1 0,0.3 0,0.4c0,0.1 0,0.2 0,0.4c0,0.1 0,0.3 -0.1,0.4c0,0.1 0,0.2 -0.1,0.4c0,0.1 -0.1,0.3 -0.1,0.4c0,0.1 -0.1,0.2 -0.1,0.4c0,0.1 -0.1,0.3 -0.1,0.4c0,0.1 -0.1,0.2 -0.1,0.3c-0.1,0.1 -0.1,0.3 -0.2,0.4c-0.1,0.1 -0.1,0.2 -0.2,0.3c-0.1,0.1 -0.1,0.3 -0.2,0.4c-0.1,0.1 -0.1,0.2 -0.2,0.3c-0.1,0.2 -0.2,0.3 -0.3,0.5c-0.1,0.1 -0.1,0.2 -0.2,0.3c-0.1,0.2 -0.2,0.3 -0.4,0.5c-0.1,0.1 -0.1,0.2 -0.2,0.2c-0.2,0.3 -0.5,0.5 -0.7,0.8c-0.1,0.1 -0.1,0.1 -0.2,0.2c-0.2,0.2 -0.4,0.4 -0.6,0.6c-0.1,0.1 -0.2,0.2 -0.3,0.3c-0.1,0.1 -0.3,0.2 -0.4,0.3c-0.1,0.1 -0.2,0.2 -0.4,0.3c-0.1,0.1 -0.3,0.2 -0.4,0.3c-0.1,0.1 -0.3,0.2 -0.4,0.3c-0.1,0.1 -0.3,0.2 -0.5,0.3c-0.1,0.1 -0.3,0.2 -0.4,0.3c-0.2,0.1 -0.3,0.2 -0.5,0.3c-0.2,0.1 -0.4,0.3 -0.6,0.4c-0.6,0.3 -1.2,0.7 -1.8,1c-0.2,0.1 -0.3,0.2 -0.5,0.2c-0.6,0.3 -1.1,0.5 -1.7,0.7c-0.1,0 -0.2,0.1 -0.2,0.1c-0.6,0.2 -1.3,0.5 -1.9,0.7c-0.5,0.1 -0.9,0.3 -1.4,0.4c-0.4,0.1 -0.7,0.2 -1.1,0.3c-0.5,0.1 -1,0.2 -1.5,0.3c-0.4,0.1 -0.7,0.2 -1.1,0.2c-0.2,0 -0.3,0 -0.5,0.1c-0.6,0.1 -1.2,0.2 -1.9,0.3c-0.2,0 -0.4,0 -0.6,0.1c-0.4,0 -0.7,0.1 -1.1,0.1c-0.6,0.1 -1.2,0.1 -1.8,0.1c-0.4,0 -0.8,0 -1.2,0c-0.5,0 -1,0 -1.5,0c-0.4,0 -0.8,0 -1.2,0c-0.5,0 -0.9,0 -1.4,-0.1c-0.4,0 -0.8,-0.1 -1.3,-0.1c-0.5,0 -0.9,-0.1 -1.3,-0.2c-0.4,-0.1 -0.8,-0.1 -1.2,-0.2c-0.5,-0.1 -1,-0.2 -1.4,-0.2c-0.4,-0.1 -0.8,-0.1 -1.1,-0.2c-0.6,-0.1 -1.1,-0.3 -1.7,-0.4c-0.4,-0.1 -0.7,-0.2 -1.1,-0.3c-0.2,-0.1 -0.4,-0.1 -0.6,-0.2c-0.6,-0.2 -1.1,-0.4 -1.6,-0.6c-0.2,-0.1 -0.3,-0.1 -0.5,-0.2c-0.5,-0.2 -1,-0.4 -1.4,-0.6c-0.2,-0.1 -0.5,-0.2 -0.7,-0.3c-0.7,-0.3 -1.3,-0.7 -2,-1c-3.7,-2.1 -6.1,-4.7 -7.2,-7.4c-0.5,-1.2 -0.8,-2.5 -0.8,-3.8l0,7.6c0,4 2.7,8.1 8,11.2c0.6,0.4 1.3,0.7 2,1c0.2,0.1 0.5,0.2 0.7,0.3c0.4,0.2 0.8,0.4 1.2,0.5c0.1,0 0.1,0.1 0.2,0.1c0.2,0.1 0.3,0.1 0.5,0.2c0.5,0.2 1.1,0.4 1.6,0.6c0.2,0.1 0.4,0.1 0.6,0.2c0.1,0 0.3,0.1 0.4,0.1c0.2,0.1 0.5,0.1 0.7,0.2c0.6,0.1 1.1,0.3 1.7,0.4c0.2,0 0.3,0.1 0.4,0.1c0.2,0 0.5,0.1 0.7,0.1c0.5,0.1 1,0.2 1.4,0.2c0.2,0 0.4,0.1 0.6,0.1c0.2,0 0.4,0 0.6,0.1c0.4,0.1 0.9,0.1 1.3,0.2c0.2,0 0.4,0.1 0.6,0.1c0.2,0 0.4,0 0.6,0c0.5,0 0.9,0.1 1.4,0.1c0.2,0 0.5,0 0.7,0c0.2,0 0.4,0 0.6,0c0.5,0 1,0 1.5,0c0.2,0 0.5,0 0.7,0c0.1,0 0.3,0 0.4,0c0.6,0 1.2,-0.1 1.8,-0.1c0.2,0 0.5,0 0.7,0c0.1,0 0.2,0 0.4,0c0.2,0 0.4,0 0.5,-0.1c0.6,-0.1 1.3,-0.2 1.9,-0.3c0.2,0 0.3,0 0.5,-0.1c0.1,0 0.1,0 0.2,0c0.3,-0.1 0.6,-0.1 0.9,-0.2c0.5,-0.1 1,-0.2 1.5,-0.3c0.4,-0.1 0.7,-0.2 1.1,-0.3c0.5,-0.1 0.9,-0.3 1.4,-0.4c0.1,0 0.2,-0.1 0.3,-0.1c0.6,-0.2 1.1,-0.4 1.6,-0.6c0.1,0 0.2,-0.1 0.2,-0.1c0.6,-0.2 1.2,-0.5 1.7,-0.7c0.2,-0.1 0.3,-0.2 0.5,-0.2c0.6,-0.3 1.2,-0.6 1.8,-1c0.1,-0.1 0.2,-0.1 0.3,-0.2c0.1,-0.1 0.2,-0.1 0.3,-0.2c0.2,-0.1 0.3,-0.2 0.5,-0.3c0.1,-0.1 0.3,-0.2 0.4,-0.3c0.2,-0.1 0.3,-0.2 0.5,-0.3c0.1,-0.1 0.3,-0.2 0.4,-0.3c0.1,-0.1 0.3,-0.2 0.4,-0.3c0.1,-0.1 0.3,-0.2 0.4,-0.3c0.1,-0.1 0.3,-0.2 0.4,-0.3c0.1,0 0.1,-0.1 0.2,-0.1c0,0 0.1,-0.1 0.1,-0.1c0.2,-0.2 0.4,-0.4 0.6,-0.6c0.1,-0.1 0.1,-0.1 0.2,-0.2c0.2,-0.3 0.5,-0.5 0.7,-0.8c0,0 0,0 0,0c0.1,-0.1 0.1,-0.1 0.1,-0.2c0.1,-0.2 0.3,-0.3 0.4,-0.5c0.1,-0.1 0.1,-0.2 0.2,-0.3c0.1,-0.2 0.2,-0.3 0.3,-0.5c0,0 0.1,-0.1 0.1,-0.1c0,-0.1 0.1,-0.1 0.1,-0.2c0.1,-0.1 0.1,-0.3 0.2,-0.4c0.1,-0.1 0.1,-0.2 0.2,-0.3c0.1,-0.1 0.1,-0.3 0.2,-0.4c0,-0.1 0.1,-0.1 0.1,-0.2c0,-0.1 0,-0.1 0.1,-0.2c0,-0.1 0.1,-0.3 0.1,-0.4c0,-0.1 0.1,-0.2 0.1,-0.4c0,-0.1 0.1,-0.3 0.1,-0.4c0,-0.1 0,-0.1 0.1,-0.2c0,0 0,-0.1 0,-0.1c0,-0.1 0,-0.3 0.1,-0.4c0,-0.1 0,-0.2 0,-0.4c0,-0.1 0,-0.3 0,-0.4c0,-0.1 0,-0.2 0,-0.2c0,-0.1 0,-0.2 0,-0.2l0,-7.6c0.2,-0.1 0.2,0 0.2,0.2z" fill="#EFC100"/>
       <g id="svg_237">
        <path id="svg_238" d="m499.4,861.5c10.6,6.1 10.6,16 0.1,22.2c-10.5,6.1 -27.7,6.1 -38.3,0c-10.6,-6.1 -10.7,-16 -0.1,-22.2c10.6,-6.2 27.7,-6.2 38.3,0z" fill="#FDD400"/>
       </g>
       <g id="svg_239">
        <path id="svg_240" d="m489.2,870.9c2.3,1.3 2.7,3.4 0.2,5.5l2.7,1.5l-2.6,1.5l-2.5,-1.4c-1.8,1 -4,1.7 -5.5,1.9l-2.3,-2.2c1.7,-0.3 3.7,-0.9 5.4,-1.8c1.5,-0.9 1.9,-1.8 0.9,-2.4c-1,-0.6 -2.5,-0.5 -5,0.3c-3.7,1.1 -6.9,1.4 -9.5,0c-2.3,-1.3 -2.5,-3.3 -0.3,-5.2l-2.5,-1.4l2.6,-1.5l2.3,1.3c1.8,-1 3.4,-1.4 4.6,-1.7l2.2,2.2c-1,0.2 -2.8,0.6 -4.6,1.7c-1.7,1 -1.5,1.7 -0.8,2.1c0.9,0.5 2.3,0.3 5.4,-0.5c4.3,-1.3 6.9,-1.2 9.3,0.1z" fill="#EC8659"/>
       </g>
      </g>
     </g>
    </g>
    <g id="svg_241">
     <g id="svg_242">
      <polygon id="svg_243" points="718.2999877929688,824.0999755859375 708.7000122070312,829.7000122070312 708.5999755859375,858.4000244140625 718.2999877929688,852.7999877929688 " fill="#58BFBF"/>
      <polygon id="svg_244" points="597,829.7000122070312 587.2999877929688,824.0999755859375 587.2000122070312,852.7999877929688 597,858.4000244140625 " fill="#58BFBF"/>
      <path id="svg_245" d="m625,878c0,-0.1 0,-0.2 0,-0.4c0,-0.1 0,-0.3 0.1,-0.4c0,-0.1 0,-0.2 0.1,-0.4c0,-0.1 0.1,-0.3 0.1,-0.4c0,-0.1 0.1,-0.2 0.1,-0.4c0,-0.1 0.1,-0.3 0.1,-0.4c0,-0.1 0.1,-0.2 0.1,-0.4c0.1,-0.1 0.1,-0.3 0.2,-0.4c0.1,-0.1 0.1,-0.2 0.2,-0.4c0.1,-0.1 0.1,-0.3 0.2,-0.4c0.1,-0.1 0.1,-0.2 0.2,-0.3c0.1,-0.2 0.2,-0.3 0.3,-0.5c0.1,-0.1 0.1,-0.2 0.2,-0.3c0.1,-0.2 0.3,-0.4 0.4,-0.5c0.1,-0.1 0.1,-0.2 0.2,-0.2c0.2,-0.3 0.5,-0.6 0.7,-0.8c0.1,-0.1 0.1,-0.1 0.2,-0.2c0.2,-0.2 0.4,-0.4 0.6,-0.6c0.1,-0.1 0.2,-0.2 0.3,-0.3c0.1,-0.1 0.3,-0.2 0.4,-0.4c0.1,-0.1 0.3,-0.2 0.4,-0.3c0.1,-0.1 0.3,-0.2 0.4,-0.3c0.1,-0.1 0.3,-0.2 0.4,-0.3c0.2,-0.1 0.3,-0.2 0.5,-0.3c0.1,-0.1 0.3,-0.2 0.4,-0.3c0.2,-0.1 0.3,-0.2 0.5,-0.3c0.2,-0.1 0.4,-0.3 0.6,-0.4c0.4,-0.2 0.8,-0.5 1.3,-0.7c0.1,-0.1 0.3,-0.1 0.4,-0.2c0.3,-0.2 0.7,-0.3 1,-0.5c0.1,-0.1 0.2,-0.1 0.4,-0.2c0.5,-0.2 0.9,-0.4 1.4,-0.6c0.1,0 0.2,-0.1 0.3,-0.1c0.4,-0.1 0.8,-0.3 1.2,-0.4c0.2,-0.1 0.3,-0.1 0.5,-0.2c0.2,-0.1 0.5,-0.1 0.7,-0.2c0.2,-0.1 0.4,-0.1 0.6,-0.2c0.2,-0.1 0.5,-0.1 0.7,-0.2c0.2,-0.1 0.4,-0.1 0.6,-0.1c0.2,-0.1 0.5,-0.1 0.7,-0.2c0.2,0 0.4,-0.1 0.6,-0.1c0.2,-0.1 0.5,-0.1 0.7,-0.1c0.2,0 0.4,-0.1 0.6,-0.1c0.5,-0.1 1.1,-0.2 1.6,-0.3c0.1,0 0.1,0 0.2,0c0.5,-0.1 0.9,-0.1 1.4,-0.2c0.2,0 0.4,0 0.5,-0.1c0.3,0 0.6,-0.1 0.9,-0.1c0.2,0 0.4,0 0.6,0c0.3,0 0.6,0 0.9,0c0.2,0 0.4,0 0.5,0c0.3,0 0.5,0 0.8,0c0.2,0 0.4,0 0.6,0c0.3,0 0.6,0 0.9,0c0.2,0 0.3,0 0.5,0c0.9,0 1.8,0.1 2.7,0.1c0,0 0,0 0.1,0c0.9,0.1 1.8,0.2 2.7,0.3c0.1,0 0.1,0 0.2,0c0.4,0.1 0.8,0.1 1.1,0.2c0.2,0 0.3,0.1 0.5,0.1c0.3,0.1 0.6,0.1 0.9,0.2c0.2,0 0.3,0.1 0.4,0.1c0.3,0.1 0.6,0.1 0.9,0.2c0.2,0 0.3,0.1 0.5,0.1c0.3,0.1 0.6,0.1 0.8,0.2c0.2,0 0.3,0.1 0.5,0.1c0.4,0.1 0.9,0.3 1.3,0.4c0.1,0 0.2,0 0.2,0.1c0.5,0.2 1,0.4 1.5,0.5c0.1,0 0.2,0.1 0.3,0.1c0.6,0.3 1.3,0.5 1.9,0.8c0.1,0 0.1,0.1 0.2,0.1c0.6,0.3 1.2,0.6 1.8,1c5.5,3.2 8.3,7.4 8.3,11.5l0.1,-28.7c0,-4.2 -2.7,-8.4 -8.3,-11.5c-0.6,-0.3 -1.2,-0.7 -1.8,-1c-0.1,0 -0.1,-0.1 -0.2,-0.1c-0.6,-0.3 -1.2,-0.6 -1.9,-0.8c-0.1,0 -0.1,0 -0.2,-0.1c0,0 -0.1,0 -0.1,-0.1c-0.5,-0.2 -1,-0.4 -1.5,-0.5c-0.1,0 -0.2,0 -0.2,-0.1c-0.4,-0.1 -0.9,-0.3 -1.3,-0.4c-0.1,0 -0.1,0 -0.2,-0.1c-0.1,0 -0.2,0 -0.3,-0.1c-0.3,-0.1 -0.6,-0.2 -0.8,-0.2c-0.2,0 -0.3,-0.1 -0.5,-0.1c-0.3,-0.1 -0.6,-0.1 -0.9,-0.2c-0.1,0 -0.2,-0.1 -0.4,-0.1c0,0 -0.1,0 -0.1,0c-0.3,-0.1 -0.6,-0.1 -0.9,-0.2c-0.2,0 -0.3,-0.1 -0.5,-0.1c-0.4,-0.1 -0.7,-0.1 -1.1,-0.2c-0.1,0 -0.1,0 -0.2,0c0,0 0,0 0,0c-0.9,-0.1 -1.8,-0.2 -2.7,-0.3c0,0 0,0 0,0c0,0 0,0 0,0c-0.9,-0.1 -1.8,-0.1 -2.7,-0.1c0,0 0,0 0,0c-0.1,0 -0.3,0 -0.4,0c-0.3,0 -0.6,0 -0.9,0c-0.2,0 -0.4,0 -0.6,0c-0.3,0 -0.5,0 -0.8,0c-0.1,0 -0.1,0 -0.2,0c-0.1,0 -0.3,0 -0.4,0c-0.3,0 -0.6,0 -0.9,0c-0.2,0 -0.4,0 -0.6,0c-0.3,0 -0.6,0 -0.9,0.1c-0.1,0 -0.2,0 -0.3,0c-0.1,0 -0.1,0 -0.2,0c-0.5,0 -0.9,0.1 -1.4,0.2c-0.1,0 -0.1,0 -0.2,0c-0.5,0.1 -1.1,0.2 -1.6,0.3c0,0 -0.1,0 -0.1,0c-0.1,0 -0.3,0.1 -0.4,0.1c-0.2,0 -0.5,0.1 -0.7,0.1c-0.2,0 -0.4,0.1 -0.6,0.1c-0.2,0.1 -0.5,0.1 -0.7,0.2c-0.2,0 -0.4,0.1 -0.6,0.1c-0.2,0.1 -0.5,0.1 -0.7,0.2c-0.2,0.1 -0.4,0.1 -0.6,0.2c-0.2,0.1 -0.5,0.1 -0.7,0.2c-0.1,0 -0.2,0.1 -0.3,0.1c-0.1,0 -0.1,0 -0.2,0.1c-0.2,0.1 -0.5,0.2 -0.7,0.2l0.1,-23.6l0,-7.9l-0.1,28.7l0,2.8c-0.2,0.1 -0.3,0.1 -0.5,0.2c-0.1,0 -0.2,0.1 -0.3,0.1c-0.5,0.2 -0.9,0.4 -1.4,0.6c-0.1,0.1 -0.2,0.1 -0.4,0.2c-0.4,0.2 -0.7,0.3 -1,0.5c-0.1,0.1 -0.3,0.1 -0.4,0.2c-0.4,0.2 -0.9,0.5 -1.3,0.7c-0.1,0.1 -0.2,0.1 -0.3,0.2c-0.1,0.1 -0.2,0.1 -0.3,0.2c-0.2,0.1 -0.3,0.2 -0.5,0.3c-0.2,0.1 -0.3,0.2 -0.4,0.3c-0.2,0.1 -0.3,0.2 -0.5,0.3c-0.1,0.1 -0.3,0.2 -0.4,0.3c-0.1,0.1 -0.3,0.2 -0.4,0.3c-0.1,0.1 -0.3,0.2 -0.4,0.3c-0.1,0.1 -0.3,0.2 -0.4,0.4c-0.1,0 -0.1,0.1 -0.2,0.1c0,0 -0.1,0.1 -0.1,0.1c-0.2,0.2 -0.4,0.4 -0.6,0.6c-0.1,0.1 -0.1,0.1 -0.2,0.2c-0.3,0.3 -0.5,0.6 -0.7,0.8c0,0 0,0 0,0c-0.1,0.1 -0.1,0.1 -0.1,0.2c-0.1,0.2 -0.3,0.4 -0.4,0.5c-0.1,0.1 -0.1,0.2 -0.2,0.3c-0.1,0.2 -0.2,0.3 -0.3,0.5c0,0 -0.1,0.1 -0.1,0.1c0,0.1 -0.1,0.1 -0.1,0.2c-0.1,0.1 -0.1,0.3 -0.2,0.4c-0.1,0.1 -0.1,0.2 -0.2,0.4c-0.1,0.1 -0.1,0.3 -0.2,0.4c0,0.1 -0.1,0.1 -0.1,0.2c0,0.1 0,0.1 -0.1,0.2c0,0.1 -0.1,0.3 -0.1,0.4c0,0.1 -0.1,0.2 -0.1,0.4c0,0.1 -0.1,0.3 -0.1,0.4c0,0.1 0,0.1 -0.1,0.2c0,0 0,0.1 0,0.1c0,0.1 0,0.3 -0.1,0.4c0,0.1 0,0.2 0,0.4c0,0.1 0,0.3 0,0.4c0,0.1 0,0.2 0,0.2c0,0.1 0,0.2 0,0.2l-0.1,28.7c0,-0.2 0,-0.3 0,-0.5c-0.2,0.5 -0.1,0.4 -0.1,0.2z" fill="#58BFBF"/>
      <path id="svg_246" d="m731.3,858.6l-13.7,0c-0.2,0.5 -0.4,1 -0.6,1.5c0,0.1 -0.1,0.2 -0.1,0.2c-0.2,0.5 -0.4,0.9 -0.7,1.4c0,0.1 -0.1,0.2 -0.1,0.3c-0.3,0.5 -0.5,0.9 -0.8,1.4c0,0 0,0 0,0.1c-0.3,0.5 -0.6,0.9 -0.9,1.3c-0.1,0.1 -0.1,0.2 -0.2,0.3c-0.3,0.4 -0.6,0.9 -1,1.3c-0.1,0.1 -0.2,0.2 -0.2,0.3c-0.3,0.4 -0.6,0.7 -0.9,1.1c-0.1,0.1 -0.2,0.3 -0.4,0.4c-0.3,0.4 -0.7,0.7 -1,1.1c-0.1,0.1 -0.2,0.2 -0.3,0.3c-0.5,0.5 -0.9,0.9 -1.4,1.4l0,11.3l-10.5,6.1l-9.7,-5.6c-1,0.4 -2.1,0.7 -3.2,1.1c-0.3,0.1 -0.7,0.2 -1,0.3c-0.6,0.2 -1.1,0.4 -1.7,0.5c-0.4,0.1 -0.7,0.2 -1.1,0.3c-0.6,0.2 -1.2,0.3 -1.8,0.5c-0.4,0.1 -0.7,0.2 -1.1,0.3c-0.7,0.2 -1.4,0.3 -2.1,0.5c-0.3,0.1 -0.5,0.1 -0.8,0.2c-1,0.2 -2,0.4 -2.9,0.6c-0.6,0.1 -1.2,0.2 -1.8,0.3c-0.3,0 -0.6,0.1 -0.9,0.2c-0.9,0.1 -1.8,0.3 -2.7,0.4l0,7.9l-28.6,0l0,-7.9c-0.7,-0.1 -1.4,-0.2 -2,-0.3c-0.7,-0.1 -1.3,-0.2 -2,-0.3c-0.4,-0.1 -0.7,-0.1 -1.1,-0.2c-0.8,-0.1 -1.5,-0.3 -2.3,-0.4c-0.2,0 -0.5,-0.1 -0.7,-0.1c-1.1,-0.2 -2.1,-0.5 -3.2,-0.7c-0.3,-0.1 -0.6,-0.1 -0.8,-0.2c-0.8,-0.2 -1.5,-0.4 -2.3,-0.6c-0.3,-0.1 -0.7,-0.2 -1,-0.3c-0.7,-0.2 -1.4,-0.4 -2.1,-0.6c-0.3,-0.1 -0.6,-0.2 -0.9,-0.3c-1,-0.3 -1.9,-0.6 -2.9,-1l-9.6,5.6l-10.7,-6.2l0,-11.2c-3.2,-2.9 -5.6,-5.9 -7.4,-9.1c-0.6,-1.1 -1.1,-2.1 -1.5,-3.2l0,0l0,0l0,0l-13.7,0l-0.1,-16.6l-0.1,28.7l0.1,16.6l13,0l-0.1,17.9l20.3,11.7l9.6,-5.6c0.9,0.3 1.9,0.7 2.9,1c0.3,0.1 0.6,0.2 0.9,0.3c0.7,0.2 1.4,0.4 2,0.6c0.2,0 0.3,0.1 0.5,0.2c0.2,0 0.3,0.1 0.5,0.1c0.8,0.2 1.5,0.4 2.3,0.6c0.3,0.1 0.6,0.1 0.8,0.2c1,0.3 2.1,0.5 3.2,0.7c0,0 0.1,0 0.1,0c0.2,0 0.4,0.1 0.6,0.1c0.8,0.2 1.5,0.3 2.3,0.4c0.4,0.1 0.7,0.1 1.1,0.2c0.7,0.1 1.3,0.2 2,0.3c0.2,0 0.4,0.1 0.5,0.1c0.5,0.1 1,0.1 1.5,0.2l0,7.9l28.7,0l0,-7.9c0.9,-0.1 1.8,-0.2 2.7,-0.4c0.3,0 0.6,-0.1 0.9,-0.2c0.6,-0.1 1.2,-0.2 1.7,-0.3c0,0 0,0 0.1,0c1,-0.2 2,-0.4 2.9,-0.6c0.3,-0.1 0.5,-0.1 0.8,-0.2c0.7,-0.2 1.4,-0.3 2.1,-0.5c0.4,-0.1 0.7,-0.2 1.1,-0.3c0.6,-0.2 1.2,-0.3 1.8,-0.5c0.4,-0.1 0.7,-0.2 1.1,-0.3c0.6,-0.2 1.2,-0.3 1.7,-0.5c0.2,-0.1 0.4,-0.1 0.6,-0.2c0.1,0 0.3,-0.1 0.4,-0.1c1.1,-0.4 2.1,-0.7 3.2,-1.1l9.7,5.6l20.2,-11.7l0.1,-17.9l12.7,0l0,-28.8z" fill="#58BFBF"/>
     </g>
     <path id="svg_247" d="m717.6,858.6l13.7,0l-0.1,-16.6l-13.7,0c-1.7,-4.3 -4.6,-8.5 -8.9,-12.3l9.6,-5.6l-20.2,-11.7l-9.6,5.6c-6.6,-2.4 -13.8,-4.1 -21.3,-5.1l0,-7.9l-28.7,0l0,7.9c-7.4,0.9 -14.6,2.6 -21.2,5.1l-9.7,-5.6l-20.2,11.7l9.7,5.6c-4.2,3.8 -7.1,8 -8.7,12.3l-13.7,0l0.1,16.6l13.7,0c1.7,4.3 4.6,8.5 8.9,12.3l-9.6,5.6l20.3,11.7l9.6,-5.6c6.6,2.4 13.8,4.1 21.3,5.1l0,7.9l28.7,0l0,-7.9c7.4,-0.9 14.6,-2.6 21.2,-5.1l9.7,5.6l20.2,-11.7l-9.7,-5.6c4.1,-3.8 7,-8 8.6,-12.3zm-44.8,3.2c-10.9,6.3 -28.6,6.3 -39.6,0c-11,-6.3 -11,-16.6 -0.1,-22.9c10.9,-6.3 28.6,-6.3 39.6,0c11,6.3 11,16.6 0.1,22.9z" fill="#77D9DC"/>
    </g>
    <g id="svg_248">
     <polygon id="svg_249" points="439.9000244140625,634.2999877929688 440.4000244140625,781.0999755859375 629.2000122070312,672 628.7999877929688,525.2999877929688 " fill="#E8F9FF"/>
    </g>
    <polygon id="svg_250" points="628.9000244140625,566 440.0999755859375,675.0999755859375 439.9000244140625,634.2999877929688 628.7999877929688,525.2999877929688 " fill="#73D9FE"/>
    <g id="svg_251">
     <polygon id="svg_252" points="541.4000244140625,644.9000244140625 541.4000244140625,651.7000122070312 460.79998779296875,698.2999877929688 460.79998779296875,691.5 " fill="#DCDCDB"/>
    </g>
    <g id="svg_253">
     <polygon id="svg_254" points="541.4000244140625,660.2999877929688 541.4000244140625,667.2000122070312 460.79998779296875,713.7000122070312 460.79998779296875,706.9000244140625 " fill="#DCDCDB"/>
    </g>
    <g id="svg_255">
     <polygon id="svg_256" points="541.4000244140625,675.7000122070312 541.4000244140625,682.5999755859375 460.79998779296875,729.0999755859375 460.79998779296875,722.2999877929688 " fill="#DCDCDB"/>
    </g>
    <g id="svg_257">
     <polygon id="svg_258" points="541.4000244140625,691.2000122070312 541.4000244140625,698 460.79998779296875,744.5 460.79998779296875,737.7000122070312 " fill="#DCDCDB"/>
    </g>
    <g id="svg_259">
     <g id="svg_260">
      <polygon id="svg_261" points="577.2000122070312,639.5 577.4000244140625,676.0999755859375 570.7000122070312,679.9000244140625 570.5,643.2999877929688 " fill="#FA6B5C"/>
     </g>
     <g id="svg_262">
      <polygon id="svg_263" points="588.5999755859375,605.7999877929688 588.7999877929688,669.4000244140625 582.5,673.0999755859375 582.2999877929688,609.4000244140625 " fill="#FED22C"/>
     </g>
     <g id="svg_264">
      <polygon id="svg_265" points="602.5999755859375,607.4000244140625 602.7999877929688,661.4000244140625 595.4000244140625,665.5999755859375 595.2000122070312,611.7000122070312 " fill="#EFA6FF"/>
     </g>
     <g id="svg_266">
      <polygon id="svg_267" points="613.7000122070312,635.2999877929688 613.7000122070312,655 607,658.9000244140625 607,639.0999755859375 " fill="#4367C7"/>
     </g>
    </g>
    <g id="svg_268">
     <g id="svg_269" enable-background="new    ">
      <g id="svg_270">
       <polygon id="svg_271" points="802.0999755859375,177.29998779296875 801.4000244140625,392.9000244140625 506.79998779296875,222.79998779296875 507.4000244140625,7.1999969482421875 " fill="#F7F8F8"/>
      </g>
      <g id="svg_272">
       <polygon id="svg_273" points="802.0999755859375,177.29998779296875 812.199951171875,171.39999389648438 811.5999755859375,387 801.4000244140625,392.9000244140625 " fill="#FEDB59"/>
      </g>
      <g id="svg_274">
       <polygon id="svg_275" points="507.4000244140625,7.1999969482421875 517.5999755859375,1.3000030517578125 812.199951171875,171.39999389648438 802.0999755859375,177.29998779296875 " fill="#FEDB59"/>
      </g>
     </g>
    </g>
    <g id="svg_276">
     <g id="svg_277" enable-background="new    ">
      <g id="svg_278">
       <polygon id="svg_279" points="586.2999877929688,214.5 586.2000122070312,241 568.0999755859375,230.5 568.0999755859375,204.10000610351562 " fill="#91B9FF"/>
      </g>
      <g id="svg_280">
       <polygon id="svg_281" points="593.7999877929688,245.39999389648438 593.9000244140625,208.29998779296875 612,218.70001220703125 611.9000244140625,255.89999389648438 " fill="#91B9FF"/>
      </g>
      <g id="svg_282">
       <polygon id="svg_283" points="593.9000244140625,188.39999389648438 612.0999755859375,198.89999389648438 612,216.20001220703125 593.9000244140625,205.70001220703125 " fill="#91B9FF"/>
      </g>
      <g id="svg_284">
       <polygon id="svg_285" points="637.7000122070312,253.20001220703125 637.5999755859375,270.70001220703125 619.5,260.20001220703125 619.5999755859375,242.70001220703125 " fill="#91B9FF"/>
      </g>
      <g id="svg_286">
       <polygon id="svg_287" points="645.2000122070312,275.1000061035156 645.2999877929688,237.89999389648438 663.4000244140625,248.39999389648438 663.2999877929688,285.5 " fill="#91B9FF"/>
      </g>
      <g id="svg_288">
       <polygon id="svg_289" points="645.4000244140625,209 663.5,219.5 663.4000244140625,245.79998779296875 645.2999877929688,235.39999389648438 " fill="#91B9FF"/>
      </g>
      <g id="svg_290">
       <polygon id="svg_291" points="670.9000244140625,289.8999938964844 671,252.79998779296875 689.0999755859375,263.29998779296875 689,300.3999938964844 " fill="#91B9FF"/>
      </g>
      <g id="svg_292">
       <polygon id="svg_293" points="696.5999755859375,304.79998779296875 696.7000122070312,267.6000061035156 714.9000244140625,278.1000061035156 714.7000122070312,315.20001220703125 " fill="#91B9FF"/>
      </g>
      <g id="svg_294">
       <polygon id="svg_295" points="671,250.20001220703125 671.0999755859375,213.10000610351562 689.2999877929688,223.5 689.2000122070312,260.70001220703125 " fill="#91B9FF"/>
      </g>
      <g id="svg_296">
       <polygon id="svg_297" points="766.7999877929688,345.29998779296875 766.7999877929688,347.8999938964844 541.7000122070312,217.89999389648438 541.7000122070312,215.29998779296875 568.0999755859375,230.5 586.2000122070312,241 593.7999877929688,245.39999389648438 611.9000244140625,255.89999389648438 619.5,260.20001220703125 637.5999755859375,270.70001220703125 645.2000122070312,275.1000061035156 663.2999877929688,285.5 670.9000244140625,289.8999938964844 689,300.3999938964844 696.5999755859375,304.79998779296875 714.7000122070312,315.20001220703125 722.2999877929688,319.6000061035156 740.5,330.1000061035156 " fill="#91B9FF"/>
      </g>
      <g id="svg_298">
       <polygon id="svg_299" points="696.7999877929688,244.89999389648438 714.9000244140625,255.39999389648438 714.9000244140625,275.5 696.7000122070312,265 " fill="#91B9FF"/>
      </g>
      <g id="svg_300">
       <polygon id="svg_301" points="671.2000122070312,195.60000610351562 689.2999877929688,206.10000610351562 689.2999877929688,221 671.0999755859375,210.5 " fill="#91B9FF"/>
      </g>
      <g id="svg_302">
       <polygon id="svg_303" points="722.2999877929688,319.6000061035156 722.4000244140625,282.5 740.5999755859375,292.8999938964844 740.5,330.1000061035156 " fill="#91B9FF"/>
      </g>
      <g id="svg_304">
       <polygon id="svg_305" points="722.4000244140625,255 740.5999755859375,265.5 740.5999755859375,290.3999938964844 722.4000244140625,279.8999938964844 " fill="#91B9FF"/>
      </g>
      <g id="svg_306">
       <polygon id="svg_307" points="766.9000244140625,305.6000061035156 766.9000244140625,308.1000061035156 740.5999755859375,292.8999938964844 722.4000244140625,282.5 714.9000244140625,278.1000061035156 696.7000122070312,267.6000061035156 689.0999755859375,263.29998779296875 671,252.79998779296875 663.4000244140625,248.39999389648438 645.2999877929688,237.89999389648438 612,218.70001220703125 593.9000244140625,208.29998779296875 541.7999877929688,178.20001220703125 541.9000244140625,175.60000610351562 593.9000244140625,205.70001220703125 612,216.20001220703125 645.2999877929688,235.39999389648438 663.4000244140625,245.79998779296875 671,250.20001220703125 689.2000122070312,260.70001220703125 696.7000122070312,265 714.9000244140625,275.5 722.4000244140625,279.8999938964844 740.5999755859375,290.3999938964844 " fill="#91B9FF"/>
      </g>
      <g id="svg_308">
       <polygon id="svg_309" points="681.4000244140625,143.10000610351562 681.4000244140625,148.20001220703125 630.5,118.79998779296875 630.5,113.69999694824219 " fill="#91B9FF"/>
      </g>
      <g id="svg_310">
       <polygon id="svg_311" points="697,162.79998779296875 697,167.89999389648438 630.4000244140625,129.5 630.5,124.39999389648438 " fill="#91B9FF"/>
      </g>
      <g id="svg_312">
       <polygon id="svg_313" points="767,265.79998779296875 767,268.3999938964844 689.2999877929688,223.5 671.0999755859375,213.10000610351562 542,138.5 542,135.89999389648438 671.0999755859375,210.5 689.2999877929688,221 " fill="#91B9FF"/>
      </g>
      <g id="svg_314">
       <polygon id="svg_315" points="767.0999755859375,226.10000610351562 767.0999755859375,228.70001220703125 542.0999755859375,98.80000305175781 542.0999755859375,96.19999694824219 " fill="#91B9FF"/>
      </g>
     </g>
     <g id="svg_316">
      <polygon id="svg_317" points="593.0999755859375,92.10000610351562 593.0999755859375,97.19999694824219 542.2000122070312,67.80000305175781 542.2000122070312,62.69999694824219 " fill="#91B9FF"/>
     </g>
     <g id="svg_318">
      <polygon id="svg_319" points="608.7000122070312,111.89999389648438 608.7000122070312,116.89999389648438 542.0999755859375,78.5 542.0999755859375,73.39999389648438 " fill="#91B9FF"/>
     </g>
     <g id="svg_320">
      <polygon id="svg_321" points="571.7999877929688,69.30000305175781 571.7999877929688,74.5 542.2000122070312,57.5 542.2000122070312,52.19999694824219 " fill="#91B9FF"/>
     </g>
     <g id="svg_322">
      <polygon id="svg_323" points="660.0999755859375,120.29998779296875 660.0999755859375,125.5 630.5,108.39999389648438 630.5,103.19999694824219 " fill="#91B9FF"/>
     </g>
    </g>
    <g id="svg_324">
     <path id="svg_325" d="m393.5,186.3c0,0 -12.9,-8.6 -24.2,-20.7c0,0 -7.6,-0.5 -12.3,-3.9c-4.6,-3.5 -4.6,-3.7 -5.3,-5.3c-0.7,-1.6 -1.9,-5.8 -1.9,-5.8s-5.6,-1.9 -7.2,-4.4c-1.6,-2.5 3,-2.3 6.5,-0.9c3.5,1.4 11.6,5.6 11.6,5.6s9.3,3.7 12,5.6c2.8,1.9 26.4,14.8 26.4,14.8l-5.6,15z" fill="#F0C7AD"/>
     <path id="svg_326" d="m425.9,331.6c0,0 -10.1,-1 -16.1,-1.6c0,0 -5,-0.8 -5.4,3.8c-0.3,4.7 2.6,8.1 10.7,12.2l10.7,4.7c0,0 4.1,2.8 7.8,2.8c3.8,0 6.6,-1.3 6.9,-4.1l0,-24.2l-14.6,6.4z" fill="#FEFBF0"/>
     <path id="svg_327" d="m446.2,317.4c0,0 -10.1,-1 -16.1,-1.6c0,0 -5,-0.8 -5.4,3.8c-0.3,4.7 2.6,8.1 10.7,12.2l10.7,4.7c0,0 4.1,2.8 7.8,2.8s6.6,-1.3 6.9,-4.1l0,-24.2l-14.6,6.4z" fill="#FEFBF0"/>
     <path id="svg_328" d="m415.2,216.1l-3.1,-0.6c0,0 -0.9,21.4 1.6,37.1c2.5,15.7 4.1,30.2 7.9,48.2c3.8,17.9 1.9,33 1.9,33s-0.3,6 6,7.9c6.3,1.9 11.3,-4.1 11.3,-4.1s-0.9,-49.4 -1.3,-55.7c-0.3,-6.3 -3.5,-17 -3.5,-17s4.4,8.8 6,18.3l0,39.7c0,0 0.6,5 8.5,6c7.9,0.9 10.5,-6.3 10.5,-6.3l0,-33.7c0,0 -1.2,-10.8 -2.5,-20.6c-1.1,-8.2 -1.1,-16.6 0.1,-24.8c1.6,-11.2 3.5,-27.2 2.4,-36.4c-1.7,-0.5 -45.8,9 -45.8,9z" fill="#FEDB59"/>
     <path id="svg_329" d="m418.7,101.8l0,12c0,0 -1.3,11 5.7,11l0,9.4l17.3,0l0,-10.4l-14.8,-24.5l-8.3,-2.2l0.1,4.7z" fill="#F0C7AD"/>
     <path id="svg_330" d="m418.7,101.8c0,0 0.9,0 2.2,1.9c1.3,1.9 2.2,5.7 2.2,5.7s1.9,-0.3 2.8,2.5c0.9,2.8 0.9,2.8 0.9,2.8s5.4,1.6 6.9,5c1.6,3.5 4.1,4.7 7.9,4.1c0,0 3.8,-0.6 6.3,-6.6c2.5,-6 4.1,-14.8 -1.6,-21.4c-5.7,-6.6 -9.1,-7.6 -18.3,-7.6c-9,0.1 -12.5,9.9 -9.3,13.6z" fill="#713D22"/>
     <path id="svg_331" d="m430.1,131.7c0,0 -7.4,1.9 -17.7,10.7c-10.4,8.8 -18.9,28.6 -18.9,28.6s-4.1,7.9 -1.9,12.6c0,0 2.5,4.7 6,4.7s10.8,-8.2 12.9,-11c2.2,-2.8 3.7,-4.7 3.7,-4.7s0.6,9.4 0,15.7c-0.6,6.3 -2.2,27.1 -2.2,27.1s0.1,14.2 6.5,20.1c6.4,6 16.8,0.3 25,-3.1c8.2,-3.5 13.8,-9.1 15.7,-12.3c1.9,-3.1 2.5,-18.9 0,-27.7c-2.5,-8.8 -4.4,-19.5 -2.5,-29.3c1.9,-9.8 6.3,-21.4 1.9,-31.5s-16.5,-6.1 -28.5,0.1z" fill="#4B4B4B"/>
    </g>
    <g id="svg_332">
     <polygon id="svg_333" points="601.2999877929688,479.9000244140625 517.5,528.7000122070312 433.0999755859375,479.9000244140625 516.9000244140625,431.20001220703125 " fill="#CBAF46"/>
    </g>
    <g id="svg_334">
     <polygon id="svg_335" points="601.2999877929688,479.9000244140625 600.5,503.29998779296875 516.7000122070312,552.0999755859375 517.5,528.7000122070312 " fill="#FEDB59"/>
    </g>
    <g id="svg_336">
     <polygon id="svg_337" points="517.5,528.7000122070312 516.7000122070312,552.0999755859375 432.29998779296875,503.29998779296875 433.0999755859375,479.9000244140625 " fill="#B89030"/>
    </g>
    <path id="svg_338" d="m522,471.3c3.6,2.1 9.3,2.1 12.9,0c3.5,-2.1 3.5,-5.4 0,-7.5c-3.6,-2.1 -9.3,-2.1 -12.9,0c-3.6,2.1 -3.6,5.4 0,7.5z" fill="#E8F9FF"/>
    <polygon id="svg_339" points="539.2000122070312,505.9000244140625 553.2000122070312,497.70001220703125 551.5,480.9000244140625 506.5999755859375,480.9000244140625 506.9000244140625,462.5999755859375 478.20001220703125,462.20001220703125 448.5,479.4000244140625 516.9000244140625,518.7999877929688 539.2000122070312,505.9000244140625 " fill="#E8F9FF"/>
   </g>
   <g id="svg_340">
    <polygon id="svg_341" points="586.2999877929688,985.0999755859375 519.7999877929688,1023.800048828125 452.9000244140625,985.0999755859375 519.4000244140625,946.5 " fill="#91B9FF"/>
   </g>
   <g id="svg_342">
    <polygon id="svg_343" points="586.2999877929688,985.0999755859375 585.7000122070312,1004.4000244140625 519.2000122070312,1043.0999755859375 519.7999877929688,1023.800048828125 " fill="#5678B5"/>
   </g>
   <g id="svg_344">
    <polygon id="svg_345" points="519.7999877929688,1023.800048828125 519.2000122070312,1043.0999755859375 452.29998779296875,1004.4000244140625 452.9000244140625,985.0999755859375 " fill="#668ED6"/>
   </g>
   <g id="svg_346">
    <polygon id="svg_347" points="649.2999877929688,969.699951171875 582.9000244140625,1008.300048828125 516,969.699951171875 582.4000244140625,931.0999755859375 " fill="#FEDB59"/>
   </g>
   <g id="svg_348">
    <polygon id="svg_349" points="649.2999877929688,969.699951171875 648.7000122070312,989 582.2000122070312,1027.5999755859375 582.9000244140625,1008.300048828125 " fill="#B89030"/>
   </g>
   <g id="svg_350">
    <polygon id="svg_351" points="582.9000244140625,1008.300048828125 582.2000122070312,1027.5999755859375 515.2999877929688,989 516,969.699951171875 " fill="#CBAF46"/>
   </g>
  </g>
 </g>
</svg>